<?xml version="1.0" encoding="utf-8"?>
<!-- Generator: Adobe Illustrator 16.0.0, SVG Export Plug-In . SVG Version: 6.00 Build 0)  -->
<!DOCTYPE svg PUBLIC "-//W3C//DTD SVG 1.1//EN" "http://www.w3.org/Graphics/SVG/1.1/DTD/svg11.dtd">
<svg version="1.1" id="Layer_1" xmlns="http://www.w3.org/2000/svg" xmlns:xlink="http://www.w3.org/1999/xlink" x="0px" y="0px"
	 width="436px" height="429px" viewBox="0 -24 436 429" enable-background="new 0 -24 436 429" xml:space="preserve">
<rect y="-24" fill="#FFFFFF" width="436" height="429"/>
<g id="Slide_1">
</g>
<g id="Slide_2" display="none">
</g>
<g id="Slide_3" display="none">
</g>
<g id="Slide_3_1_" display="none">
</g>
<g id="Drop_Down" display="none">
</g>
<g>
	<g>
		<circle fill="none" stroke="#736759" stroke-width="2" stroke-miterlimit="10" cx="218" cy="61.503" r="56"/>
		<g>
			<path fill="none" stroke="#736759" stroke-width="2" stroke-miterlimit="10" d="M194.281,31.753
				c-1.608,4.824,10.451,15.277,10.451,26.533s-16.08,18.492-13.668,32.965"/>
			<path fill="none" stroke="#736759" stroke-width="2" stroke-miterlimit="10" d="M241.719,31.753
				c1.608,4.824-10.451,15.277-10.451,26.533s16.08,18.492,13.668,32.965"/>
		</g>
	</g>
	<g>
		<circle fill="none" stroke="#736759" stroke-width="2" stroke-miterlimit="10" cx="86.556" cy="190.656" r="56"/>
		<g>
			<path fill="none" stroke="#736759" stroke-width="2" stroke-miterlimit="10" d="M117.056,180.656
				c-4,12-15.633,21.178-30.671,21.178c-15.039,0-26.329-9.178-30.329-21.178"/>
			<path fill="none" stroke="#736759" stroke-width="2" stroke-miterlimit="10" d="M56.056,181.582
				c-1.514,6.049-10.732,11.074-13,11.074"/>
			<path fill="none" stroke="#736759" stroke-width="2" stroke-miterlimit="10" d="M65.905,195.027
				c0.758,4.537-6.051,9.074-8.32,10.588"/>
			<path fill="none" stroke="#736759" stroke-width="2" stroke-miterlimit="10" d="M80.333,200.32
				c-1.791,5.377-1.674,6.52-5.293,11.346"/>
			<path fill="none" stroke="#736759" stroke-width="2" stroke-miterlimit="10" d="M117.397,181.656c1.51,6.049,10.391,11,12.658,11
				"/>
			<path fill="none" stroke="#736759" stroke-width="2" stroke-miterlimit="10" d="M106.864,195.027
				c-0.757,4.537,6.051,9.074,8.319,10.588"/>
			<path fill="none" stroke="#736759" stroke-width="2" stroke-miterlimit="10" d="M92.437,200.32
				c1.791,5.377,1.676,6.52,5.293,11.346"/>
		</g>
	</g>
	<g>
		<circle fill="none" stroke="#736759" stroke-width="2" stroke-miterlimit="10" cx="218" cy="190.656" r="56"/>
		<g>
			<path fill="none" stroke="#736759" stroke-width="2" stroke-miterlimit="10" d="M207.875,171.434c12,4,16.75,9.035,16.75,33.035"
				/>
			<path fill="none" stroke="#736759" stroke-width="2" stroke-miterlimit="10" d="M229.875,161.434c13,3,19.5,19.035,19.5,43.035"
				/>
			<path fill="none" stroke="#736759" stroke-width="2" stroke-miterlimit="10" d="M186.875,182.434c12,3,13,16,13,22.035"/>
		</g>
		
			<line fill="none" stroke="#736759" stroke-width="2" stroke-miterlimit="10" x1="178.875" y1="205.434" x2="262.875" y2="205.434"/>
	</g>
	<g>
		<circle fill="none" stroke="#736759" stroke-width="2" stroke-miterlimit="10" cx="349.444" cy="61.503" r="56"/>
		<g>
			<g>
				<circle fill="none" stroke="#736759" stroke-width="2" stroke-miterlimit="10" cx="336.96" cy="83.105" r="8.323"/>
				<circle fill="none" stroke="#736759" stroke-width="2" stroke-miterlimit="10" cx="360.74" cy="83.105" r="8.323"/>
			</g>
			<g>
				<circle fill="none" stroke="#736759" stroke-width="2" stroke-miterlimit="10" cx="325.268" cy="62.099" r="8.323"/>
				<circle fill="none" stroke="#736759" stroke-width="2" stroke-miterlimit="10" cx="349.444" cy="62.099" r="8.323"/>
				<circle fill="none" stroke="#736759" stroke-width="2" stroke-miterlimit="10" cx="373.621" cy="62.099" r="8.323"/>
			</g>
			<g>
				<circle fill="none" stroke="#736759" stroke-width="2" stroke-miterlimit="10" cx="336.365" cy="39.903" r="8.323"/>
				<circle fill="none" stroke="#736759" stroke-width="2" stroke-miterlimit="10" cx="360.146" cy="39.903" r="8.323"/>
			</g>
		</g>
	</g>
	<g>
		<circle fill="none" stroke="#736759" stroke-width="2" stroke-miterlimit="10" cx="349.444" cy="319.81" r="56"/>
		<g>
			<path fill="none" stroke="#736759" stroke-width="2" stroke-miterlimit="10" d="M360.009,341.73
				c-0.172-0.581-0.395-1.155-0.66-1.704l-9.793-16.984l-9.782,16.968c-0.276,0.562-0.503,1.146-0.675,1.729
				c-0.295,1.006-0.447,2.043-0.447,3.086c0,1.91,0.505,3.795,1.457,5.446c1.941,3.363,5.562,5.453,9.447,5.453
				c6.014,0,10.904-4.894,10.904-10.905C360.46,343.778,360.31,342.739,360.009,341.73L360.009,341.73z"/>
			<path fill="none" stroke="#736759" stroke-width="2" stroke-miterlimit="10" d="M360.462,294.798
				c0-6.014-4.893-10.904-10.904-10.904c-3.885,0-7.506,2.089-9.448,5.453c-0.952,1.652-1.457,3.537-1.457,5.447
				c0,1.043,0.151,2.08,0.446,3.084c0.172,0.586,0.398,1.168,0.678,1.733l0.107,0.216l9.672,16.75l9.804-17.009
				c0.256-0.526,0.479-1.099,0.649-1.681C360.31,296.88,360.46,295.841,360.462,294.798L360.462,294.798z"/>
			<path fill="none" stroke="#736759" stroke-width="2" stroke-miterlimit="10" d="M372.287,296.141
				c-1.901,0-3.78,0.505-5.434,1.459c-0.902,0.522-1.728,1.174-2.451,1.937c-0.416,0.44-0.802,0.92-1.144,1.426l-9.814,16.972
				l19.586-0.013c0.621-0.039,1.239-0.135,1.835-0.28c1.021-0.246,1.993-0.636,2.897-1.155c1.654-0.955,3.033-2.334,3.988-3.984
				c1.941-3.364,1.941-7.545-0.002-10.909C379.808,298.229,376.183,296.141,372.287,296.141L372.287,296.141z"/>
			<path fill="none" stroke="#736759" stroke-width="2" stroke-miterlimit="10" d="M335.644,338.639l0.131-0.2l9.67-16.752
				l-19.631,0.014c-0.578,0.041-1.186,0.135-1.781,0.276c-1.021,0.246-1.999,0.635-2.902,1.155
				c-5.205,3.006-6.998,9.688-3.992,14.896c1.945,3.365,5.564,5.456,9.447,5.456c1.907-0.002,3.791-0.506,5.445-1.462
				c0.906-0.524,1.73-1.174,2.447-1.93C334.903,339.649,335.294,339.161,335.644,338.639L335.644,338.639z"/>
			<path fill="none" stroke="#736759" stroke-width="2" stroke-miterlimit="10" d="M321.132,316.487
				c0.903,0.521,1.881,0.91,2.902,1.154c0.59,0.143,1.199,0.234,1.805,0.277l19.605,0.014l-9.805-16.957
				c-0.346-0.518-0.736-1.006-1.159-1.445c-0.72-0.758-1.543-1.408-2.449-1.932c-1.655-0.956-3.538-1.462-5.444-1.462
				c-3.885,0-7.504,2.089-9.447,5.454C314.134,306.798,315.925,313.48,321.132,316.487L321.132,316.487z"/>
			<path fill="none" stroke="#736759" stroke-width="2" stroke-miterlimit="10" d="M364.402,340.083
				c0.724,0.762,1.548,1.412,2.451,1.936c1.653,0.955,3.532,1.459,5.434,1.459c3.896,0,7.521-2.088,9.462-5.45
				c1.943-3.364,1.944-7.544,0.002-10.907c-0.955-1.651-2.334-3.028-3.99-3.985c-0.905-0.521-1.879-0.91-2.894-1.154
				c-0.598-0.146-1.216-0.239-1.842-0.282l-0.239-0.013l-19.342,0.001l9.828,16.993C363.599,339.161,363.982,339.64,364.402,340.083
				L364.402,340.083z"/>
		</g>
	</g>
	<g>
		<circle fill="none" stroke="#736759" stroke-width="2" stroke-miterlimit="10" cx="349.444" cy="190.656" r="56"/>
		<path fill="none" stroke="#736759" stroke-width="2" stroke-miterlimit="10" d="M311.203,203.871
			c7.203-3.622,13.608,7.734,17.921,1.955c3.221-4.314,0.639-11.982,6.842-15.658c5.441-3.223,17.135,6.198,21.811,4.165
			c6.15-2.677,1.743-13.927,8.893-16.551c6.637-2.437,14.447,10.782,19.025,0.011"/>
	</g>
	<g>
		<circle fill="none" stroke="#736759" stroke-width="2" stroke-miterlimit="10" cx="218" cy="319.81" r="56"/>
		<path fill="none" stroke="#736759" stroke-width="2" stroke-miterlimit="10" d="M258.5,321.304h-33.363c0,0-4.996-5.209-8-5
			c-2.697,0.188-6.932,5.049-9.637,5c-3.535-0.064-3.363-10-10-10c-6,0-5.363,17-12,17c-6.082,0-7.125-12.502-8-16"/>
	</g>
	<g>
		<circle fill="none" stroke="#736759" stroke-width="2" stroke-miterlimit="10" cx="86.556" cy="319.81" r="56"/>
		<g>
			<path fill="none" stroke="#736759" stroke-width="2" stroke-miterlimit="10" d="M67.394,319.499c0,0,35.718,0,47.624,0
				c11.296,0,11.698-10.064,7.646-13.355c-6.866-5.571-13.506,0.712-13.521,4.931"/>
			<path fill="none" stroke="#736759" stroke-width="2" stroke-miterlimit="10" d="M67.394,351.845c0,0,35.718,0,47.624,0
				c11.296,0,11.698-10.064,7.646-13.355c-6.866-5.572-13.506,0.711-13.521,4.931"/>
			<path fill="none" stroke="#736759" stroke-width="2" stroke-miterlimit="10" d="M103.716,335.672c0,0-35.719,0-47.625,0
				c-11.295,0-11.697-10.065-7.644-13.354c6.865-5.573,13.505,0.71,13.521,4.93"/>
			<path fill="none" stroke="#736759" stroke-width="2" stroke-miterlimit="10" d="M103.716,303.326c0,0-35.719,0-47.625,0
				c-11.295,0-11.697-10.065-7.645-13.355c6.865-5.572,13.506,0.71,13.521,4.931"/>
		</g>
	</g>
	<g>
		<g>
			<circle fill="none" stroke="#736759" stroke-width="2" stroke-miterlimit="10" cx="86.823" cy="61.245" r="14.27"/>
			<circle fill="none" stroke="#736759" stroke-width="2" stroke-miterlimit="10" cx="60.771" cy="39.231" r="8.473"/>
			<circle fill="none" stroke="#736759" stroke-width="2" stroke-miterlimit="10" cx="102.915" cy="93.802" r="8.919"/>
			<circle fill="none" stroke="#736759" stroke-width="2" stroke-miterlimit="10" cx="86.823" cy="61.245" r="8.919"/>
			<circle fill="none" stroke="#736759" stroke-width="2" stroke-miterlimit="10" cx="69.115" cy="81.821" r="6.689"/>
			<circle fill="none" stroke="#736759" stroke-width="2" stroke-miterlimit="10" cx="111.639" cy="39.574" r="6.689"/>
			<line fill="none" stroke="#736759" stroke-width="2" stroke-miterlimit="10" x1="98.135" y1="51.108" x2="106.849" y2="43.724"/>
			<path fill="none" stroke="#736759" stroke-width="2" stroke-miterlimit="10" d="M72.434,57.191"/>
			<line fill="none" stroke="#736759" stroke-width="2" stroke-miterlimit="10" x1="99.122" y1="85.88" x2="93.444" y2="74.44"/>
			<line fill="none" stroke="#736759" stroke-width="2" stroke-miterlimit="10" x1="72.988" y1="76.805" x2="77.295" y2="71.329"/>
			<line fill="none" stroke="#736759" stroke-width="2" stroke-miterlimit="10" x1="67.597" y1="43.945" x2="75.848" y2="51.741"/>
		</g>
		<circle fill="none" stroke="#736759" stroke-width="2" stroke-miterlimit="10" cx="86.556" cy="61.503" r="56"/>
	</g>
</g>
</svg>
