<?xml version="1.0" encoding="utf-8"?>
<!-- Generator: Adobe Illustrator 16.0.0, SVG Export Plug-In . SVG Version: 6.00 Build 0)  -->
<!DOCTYPE svg PUBLIC "-//W3C//DTD SVG 1.1//EN" "http://www.w3.org/Graphics/SVG/1.1/DTD/svg11.dtd">
<svg version="1.1" id="Layer_1" xmlns="http://www.w3.org/2000/svg" xmlns:xlink="http://www.w3.org/1999/xlink" x="0px" y="0px"
	 width="488px" height="212px" viewBox="-15.5 -17.5 488 212" enable-background="new -15.5 -17.5 488 212" xml:space="preserve">
<rect x="-15.5" y="-17.5" fill="#FFFFFF" width="488" height="212"/>
<g>
	<path fill="#474340" d="M272.154,41.86c-0.934-2.355-2.312-4.426-4.141-6.211c-0.426-0.416-0.879-0.812-1.354-1.188
		c0.957-3.475,0.924-6.667-0.104-9.573c-1.033-2.929-2.727-5.568-5.08-7.922c-1.838-1.838-3.918-3.257-6.242-4.263
		c-2.326-1.005-4.766-1.493-7.318-1.464c-0.596,0.007-1.195,0.048-1.797,0.117c-1.781-3.133-4.062-5.366-6.844-6.697
		c-2.801-1.34-5.865-2.009-9.193-2.009c-2.599,0-5.074,0.468-7.428,1.399c-2.355,0.935-4.426,2.313-6.211,4.141
		c-0.39,0.398-0.759,0.823-1.114,1.265c-3.05-0.479-6.008-0.336-8.872,0.449c-3.559,0.976-6.802,2.928-9.729,5.854
		c-1.779,1.779-3.144,3.832-4.091,6.157c-0.946,2.324-1.393,4.777-1.334,7.361c0.009,0.421,0.04,0.842,0.08,1.265
		c-2.143,1.701-3.88,3.704-5.199,6.021c-1.826,3.206-2.739,6.88-2.739,11.021c0,2.517,0.487,4.933,1.461,7.246
		c0.975,2.312,2.395,4.362,4.263,6.148c0.304,0.291,0.623,0.566,0.951,0.838c-0.312,2.718-0.125,5.361,0.58,7.932
		c0.976,3.56,2.928,6.803,5.855,9.73c1.778,1.777,3.832,3.142,6.156,4.09c2.324,0.946,4.778,1.392,7.361,1.334
		c0.421-0.009,0.843-0.04,1.265-0.08c1.701,2.144,3.705,3.881,6.02,5.198c3.206,1.826,6.881,2.739,11.021,2.739
		c2.515,0,4.93-0.487,7.245-1.462c2.312-0.974,4.361-2.394,6.148-4.261c0.291-0.306,0.57-0.628,0.842-0.957
		c3.139,0.722,6.041,0.623,8.703-0.317c2.928-1.031,5.568-2.727,7.922-5.078c1.838-1.84,3.258-3.92,4.264-6.243
		c1.004-2.326,1.492-4.767,1.463-7.318c-0.006-0.596-0.047-1.195-0.115-1.797c3.131-1.781,5.365-4.062,6.695-6.844
		c1.34-2.8,2.01-5.866,2.01-9.192C273.555,46.689,273.088,44.214,272.154,41.86z M248.305,13.866c2.238,0,4.332,0.431,6.285,1.291
		c1.951,0.861,3.645,2.009,5.08,3.444c2.066,2.065,3.545,4.348,4.436,6.845c0.77,2.166,0.881,4.668,0.336,7.503
		c-1.002-0.587-2.08-1.109-3.244-1.562c-2.723-1.057-5.865-1.583-9.438-1.583c-3.33,0-6.252,0.506-8.768,1.521
		c-2.518,1.015-4.73,2.333-6.637,3.958c-1.908,1.623-3.572,3.511-4.992,5.662c-0.736,1.113-1.434,2.244-2.092,3.391
		c-0.371-1.306-0.703-2.662-0.985-4.08c-0.431-2.151-0.589-4.318-0.474-6.501c0.114-2.181,0.645-4.377,1.592-6.587
		c0.945-2.211,2.482-4.377,4.607-6.501c2.41-2.411,4.834-4.146,7.275-5.209C243.727,14.397,246.064,13.865,248.305,13.866z
		 M223.935,6.242c1.988-0.771,3.998-1.157,6.027-1.157c2.923,0,5.582,0.569,7.976,1.705c2.076,0.987,3.924,2.678,5.543,5.067
		c-1.123,0.293-2.256,0.686-3.398,1.189c-2.67,1.178-5.268,3.028-7.791,5.555c-2.355,2.354-4.063,4.777-5.124,7.275
		c-1.063,2.496-1.695,4.993-1.895,7.49c-0.202,2.497-0.045,5.009,0.474,7.534c0.267,1.308,0.574,2.6,0.919,3.877
		c-1.186-0.661-2.379-1.387-3.583-2.188c-1.826-1.218-3.47-2.638-4.932-4.262c-1.461-1.623-2.639-3.551-3.531-5.784
		c-0.895-2.231-1.34-4.851-1.34-7.854c0-3.409,0.488-6.353,1.462-8.828c0.496-1.261,1.072-2.405,1.727-3.436
		c0.284-0.446,0.583-0.87,0.897-1.273c0.382-0.491,0.785-0.953,1.212-1.38C220.16,8.19,221.943,7.016,223.935,6.242z
		 M195.049,22.777c0.775-2.039,1.938-3.831,3.487-5.381c2.183-2.184,4.908-3.764,8.18-4.736c2.207-0.658,4.507-0.875,6.896-0.672
		c-0.533,0.938-1.012,1.943-1.429,3.021c-1.057,2.722-1.584,5.866-1.584,9.438c0,3.329,0.506,6.252,1.522,8.768
		c1.014,2.518,2.333,4.729,3.957,6.637c1.623,1.907,3.511,3.572,5.663,4.992c1.43,0.944,2.89,1.82,4.374,2.641
		c-1.529,0.447-3.115,0.839-4.763,1.169c-2.297,0.459-4.621,0.631-6.975,0.517c-2.354-0.115-4.679-0.632-6.975-1.55
		c-2.296-0.919-4.477-2.411-6.543-4.478c-2.239-2.239-3.903-4.565-4.994-6.976c-0.689-1.523-1.184-3.014-1.482-4.469
		c-0.175-0.847-0.284-1.683-0.326-2.505c-0.008-0.16-0.009-0.317-0.013-0.477C194,26.65,194.33,24.67,195.049,22.777z
		 M187.221,53.733c-0.894-1.991-1.339-4.08-1.339-6.271c0-3.087,0.811-6.131,2.436-9.133c0.939-1.738,2.158-3.294,3.642-4.679
		c0.315,1.161,0.738,2.329,1.282,3.507c1.233,2.668,3.113,5.267,5.64,7.793c2.354,2.354,4.794,4.045,7.319,5.079
		c2.525,1.032,5.096,1.622,7.706,1.766c2.612,0.144,5.253-0.06,7.922-0.603c1.43-0.293,2.863-0.634,4.301-1.018
		c-0.622,1.084-1.289,2.168-2.012,3.254c-1.299,1.947-2.821,3.713-4.566,5.297c-1.746,1.582-3.755,2.861-6.027,3.836
		c-2.273,0.975-4.87,1.461-7.793,1.461c-3.166,0-5.988-0.47-8.463-1.4c-1.565-0.591-2.968-1.295-4.208-2.112
		c-0.723-0.475-1.391-0.987-2.003-1.539c-0.118-0.107-0.23-0.22-0.345-0.328C189.216,57.213,188.049,55.579,187.221,53.733z
		 M209.988,82.146c-0.159,0.009-0.317,0.009-0.476,0.013c-2.067,0.047-4.048-0.283-5.939-1.002
		c-2.039-0.776-3.832-1.938-5.382-3.488c-2.182-2.182-3.762-4.906-4.735-8.18c-0.565-1.894-0.803-3.855-0.732-5.883
		c1.043,0.598,2.168,1.125,3.386,1.573c2.759,1.014,5.925,1.521,9.498,1.521c3.328,0,6.25-0.53,8.768-1.584
		c2.516-1.057,4.749-2.456,6.697-4.2c1.948-1.747,3.672-3.757,5.176-6.027c0.804-1.219,1.576-2.474,2.322-3.761
		c0.326,1.206,0.621,2.444,0.877,3.723c0.459,2.296,0.631,4.62,0.517,6.975c-0.115,2.354-0.632,4.679-1.549,6.975
		c-0.92,2.297-2.412,4.478-4.479,6.545c-2.238,2.237-4.564,3.901-6.975,4.992c-1.524,0.689-3.014,1.184-4.469,1.482
		C211.646,81.995,210.812,82.104,209.988,82.146z M234.527,88.985c-1.99,0.894-4.08,1.339-6.271,1.339
		c-3.086,0-6.13-0.811-9.133-2.436c-1.738-0.938-3.294-2.159-4.679-3.643c1.161-0.314,2.329-0.738,3.508-1.282
		c2.667-1.232,5.266-3.112,7.792-5.641c2.354-2.353,4.045-4.793,5.08-7.318c1.031-2.524,1.619-5.095,1.765-7.706
		c0.143-2.611-0.061-5.253-0.604-7.923c-0.293-1.429-0.634-2.861-1.015-4.3c1.082,0.623,2.166,1.29,3.251,2.012
		c1.947,1.3,3.713,2.821,5.297,4.566c1.582,1.747,2.861,3.755,3.836,6.027s1.459,4.87,1.459,7.794c0,3.165-0.467,5.985-1.398,8.463
		c-0.936,2.477-2.152,4.547-3.652,6.21C238.26,86.814,236.516,88.093,234.527,88.985z M261.049,73.795
		c-0.861,1.95-2.01,3.645-3.445,5.08c-2.066,2.066-4.348,3.544-6.844,4.435c-1.918,0.682-4.102,0.845-6.543,0.496
		c0.676-1.132,1.264-2.366,1.758-3.709c1.016-2.76,1.521-5.926,1.521-9.498c0-3.327-0.529-6.25-1.582-8.769
		c-1.059-2.515-2.457-4.749-4.201-6.697c-1.746-1.947-3.756-3.672-6.029-5.176c-0.916-0.604-1.855-1.188-2.811-1.761
		c0.994-0.26,2.02-0.495,3.076-0.707c2.152-0.431,4.318-0.589,6.502-0.474c2.18,0.113,4.377,0.645,6.588,1.594
		c2.209,0.946,4.375,2.481,6.5,4.605c2.41,2.41,4.145,4.835,5.209,7.275c1.061,2.439,1.592,4.779,1.592,7.018
		C262.34,69.748,261.91,71.841,261.049,73.795z M269.416,57.143c-0.988,2.075-2.68,3.924-5.066,5.544
		c-0.295-1.123-0.688-2.256-1.189-3.399c-1.18-2.671-3.029-5.268-5.557-7.793c-2.354-2.354-4.777-4.062-7.273-5.123
		c-2.498-1.062-4.994-1.695-7.492-1.895c-2.496-0.201-5.008-0.044-7.533,0.474c-1.309,0.268-2.6,0.575-3.876,0.919
		c0.66-1.186,1.384-2.379,2.187-3.582c1.219-1.827,2.639-3.471,4.264-4.932c1.621-1.462,3.549-2.64,5.783-3.531
		c2.23-0.895,4.85-1.34,7.854-1.34c3.408,0,6.352,0.487,8.828,1.462c2.475,0.974,4.506,2.252,6.088,3.835
		c1.584,1.583,2.76,3.368,3.531,5.358c0.771,1.987,1.156,3.996,1.156,6.027C271.119,52.089,270.551,54.747,269.416,57.143z"/>
	<g>
		<path fill="#474340" d="M144.704,174.174h-2.597v-15.379h4.049l4.642,9.658l4.642-9.658h4.026v15.379h-2.596V162.16l-5.368,10.672
			h-1.452l-5.346-10.672V174.174L144.704,174.174z"/>
		<path fill="#474340" d="M186.416,158.795v2.441h-8.206v4.07h7.37v2.311h-7.37v4.113h8.47v2.442h-11.066v-15.379L186.416,158.795
			L186.416,158.795z"/>
		<path fill="#474340" d="M213.52,160.809c1.481,1.342,2.222,3.209,2.222,5.599c0,2.393-0.719,4.282-2.156,5.678
			c-1.438,1.394-3.638,2.09-6.6,2.09h-5.104v-15.379h5.28C209.918,158.795,212.038,159.467,213.52,160.809z M213.123,166.473
			c0-3.52-2.017-5.279-6.05-5.279h-2.596v10.537h2.882c1.862,0,3.289-0.442,4.279-1.33
			C212.627,169.514,213.123,168.203,213.123,166.473z"/>
		<path fill="#474340" d="M253.525,160.818c-0.756,0-1.375,0.154-1.859,0.463s-0.727,0.773-0.727,1.396
			c0,0.623,0.242,1.101,0.727,1.431s1.516,0.686,3.092,1.067s2.764,0.916,3.562,1.604c0.801,0.689,1.199,1.705,1.199,3.048
			c0,1.342-0.506,2.432-1.518,3.268c-1.014,0.837-2.34,1.255-3.982,1.255c-2.406,0-4.539-0.828-6.4-2.486l1.627-1.959
			c1.555,1.35,3.168,2.024,4.84,2.024c0.836,0,1.5-0.18,1.992-0.538c0.49-0.359,0.736-0.837,0.736-1.431
			c0-0.597-0.23-1.058-0.693-1.387c-0.461-0.33-1.258-0.632-2.387-0.902c-1.131-0.271-1.988-0.521-2.574-0.748
			s-1.107-0.522-1.562-0.891c-0.908-0.689-1.363-1.746-1.363-3.169c0-1.422,0.518-2.52,1.553-3.288
			c1.033-0.769,2.312-1.154,3.838-1.154c0.982,0,1.959,0.16,2.926,0.481c0.969,0.324,1.805,0.779,2.508,1.365l-1.385,1.957
			c-0.455-0.41-1.07-0.748-1.848-1.012C255.047,160.949,254.279,160.818,253.525,160.818z"/>
		<path fill="#474340" d="M284.996,160.137c1.07,0.896,1.605,2.273,1.605,4.137c0,1.865-0.547,3.228-1.639,4.093
			c-1.094,0.864-2.77,1.299-5.027,1.299h-2.729v4.51h-2.598v-15.379h5.281C282.225,158.795,283.926,159.242,284.996,160.137z
			 M283.16,166.484c0.52-0.551,0.779-1.357,0.779-2.42c0-1.064-0.33-1.814-0.988-2.256c-0.66-0.439-1.695-0.66-3.104-0.66h-2.641
			v6.16h3.014C281.66,167.309,282.639,167.033,283.16,166.484z"/>
		<path fill="#474340" d="M302.883,170.676l-1.541,3.498h-2.771l6.775-15.379h2.771l6.775,15.379h-2.771l-1.539-3.498H302.883z
			 M309.525,168.277l-2.793-6.336l-2.795,6.336H309.525z"/>
	</g>
	<g>
		<g>
			<path fill="#474340" d="M24.93,125.969c0,4.371-1.29,8.117-3.746,10.823c-1.332,1.498-2.997,2.664-4.954,3.413
				c-1.998,0.791-4.246,1.207-6.744,1.207H3.784H2.16v-30.887h4.829h2.497c2.498,0,4.746,0.375,6.744,1.207
				c1.957,0.75,3.622,1.914,4.954,3.414C23.64,117.852,24.93,121.598,24.93,125.969z M20.101,125.969
				c0-3.162-0.874-5.785-2.498-7.576c-1.832-2.039-4.537-3.037-8.117-3.037H6.988v21.229h2.497c3.58,0,6.286-1.041,8.117-3.039
				C19.227,131.755,20.101,129.091,20.101,125.969z"/>
			<path fill="#474340" d="M69.494,141.412h-5.453l-7.784-10.448h-3.538v10.448H47.89v-30.887h4.08h5.079
				c4.079,0,6.452,1.664,7.701,3.08c1.624,1.789,2.498,4.287,2.498,7.16c0,2.83-0.874,5.327-2.498,7.117
				c-0.75,0.832-1.915,1.79-3.58,2.372L69.494,141.412z M57.047,126.635c1.998,0,3.496-0.583,4.454-1.664
				c1.166-1.25,1.374-2.998,1.374-4.205c0-1.248-0.208-2.996-1.374-4.246c-0.958-1.082-2.456-1.623-4.454-1.623h-4.329v11.738
				H57.047z"/>
			<path fill="#474340" d="M93.978,141.412c-1.624,0-2.914-1.29-2.914-2.914c0-1.582,1.291-2.914,2.914-2.914
				c1.582,0,2.914,1.332,2.914,2.914C96.892,140.122,95.56,141.412,93.978,141.412z"/>
			<path fill="#474340" d="M136.59,135.21c-0.874,2.997-3.58,5.37-6.952,6.036c-0.625,0.124-1.249,0.166-1.873,0.166
				c-1.249,0-2.498-0.208-3.663-0.666c-1.957-0.791-3.663-2.081-5.12-3.954l3.83-2.997c0.874,1.165,1.915,1.998,3.039,2.414
				c0.916,0.375,1.915,0.458,2.831,0.25c1.582-0.292,2.872-1.332,3.247-2.581c0.416-1.415-0.541-2.664-1.416-3.497
				c-1.374-1.29-3.622-3.496-3.788-3.663l-3.788-3.579c-1.166-1.123-1.957-2.373-2.373-3.705c-0.416-1.289-0.458-2.664-0.083-3.912
				c0.375-1.332,1.166-2.498,2.29-3.455c1.041-0.875,2.331-1.498,3.705-1.748c1.499-0.334,3.08-0.209,4.579,0.332
				c1.582,0.625,2.997,1.666,4.204,3.123l-3.788,3.039c-1.582-1.916-3.205-1.916-4.079-1.75c-1.083,0.209-1.998,0.916-2.248,1.791
				c-0.167,0.582-0.125,1.539,1.166,2.789l5.162,4.953c0.749,0.75,1.665,1.623,2.331,2.247c1.332,1.207,2.248,2.581,2.706,4.038
				C136.964,132.296,137.006,133.795,136.59,135.21z"/>
			<path fill="#474340" d="M162.488,138.956c-1.208-0.916-2.123-2.04-2.748-3.33c-0.708-1.415-1.041-2.997-1.041-4.704v-20.396
				h4.829v20.396c0,1.832,0.666,3.247,1.915,4.205c1.166,0.915,2.872,1.457,4.704,1.457c1.79,0,3.496-0.542,4.704-1.457
				c1.249-0.958,1.873-2.373,1.873-4.205v-20.396h4.87v20.396c0,1.707-0.375,3.289-1.041,4.704c-0.666,1.29-1.582,2.414-2.747,3.33
				c-2.04,1.582-4.746,2.456-7.659,2.456C167.233,141.412,164.528,140.538,162.488,138.956z"/>
			<path fill="#474340" d="M229.074,129.757v8.367l-1.083,0.749c-0.042,0-0.042,0-0.083,0.041c-0.042,0.042-0.125,0.084-0.167,0.084
				c-0.042,0.041-0.083,0.083-0.125,0.083c-0.042,0.042-0.083,0.083-0.167,0.083c-0.042,0.042-0.083,0.084-0.167,0.125
				c-0.042,0.042-0.083,0.042-0.125,0.083c-0.042,0.042-0.083,0.042-0.125,0.084c-0.083,0.041-0.125,0.041-0.208,0.083
				c-0.042,0.041-0.083,0.041-0.125,0.083c-0.042,0.042-0.125,0.083-0.208,0.083c-0.042,0.042-0.042,0.042-0.083,0.084
				c-0.042,0-0.042,0-0.083,0c-0.042,0.041-0.125,0.083-0.208,0.125c-0.083,0.041-0.208,0.083-0.292,0.124c0,0,0,0-0.042,0.042
				c-1.748,0.791-3.58,1.207-5.536,1.332c0,0,0,0-0.042,0c-0.083,0-0.208,0-0.333,0h-0.042c-0.125,0-0.25,0-0.375,0
				c-1.665,0-3.33-0.25-4.87-0.791c-0.042,0-0.042,0-0.042,0c-0.166-0.041-0.291-0.125-0.458-0.166
				c-0.208-0.084-0.417-0.167-0.625-0.25c-0.541-0.208-1.041-0.458-1.499-0.749c-1.249-0.666-2.415-1.54-3.414-2.581
				c-1.415-1.415-2.539-3.039-3.33-4.912c-0.583-1.415-0.999-2.914-1.124-4.454c-0.042-0.499-0.083-1.04-0.083-1.54
				c0-0.25,0-0.541,0-0.791c0.125-1.789,0.5-3.58,1.207-5.244c0.791-1.832,1.915-3.496,3.33-4.912
				c1.416-1.416,3.039-2.539,4.912-3.289c1.873-0.832,3.913-1.207,5.994-1.207c0.125,0,0.25,0,0.375,0h0.042c0.125,0,0.25,0,0.333,0
				c0.042,0,0.042,0,0.042,0c0.125,0,0.25,0,0.375,0.043c1.79,0.125,3.538,0.541,5.203,1.289c0,0,0,0.043,0.042,0.043
				c0.083,0.041,0.167,0.082,0.25,0.125c0.042,0,0.042,0,0.042,0v5.701c-0.625-0.541-1.332-0.957-2.081-1.332
				c-0.625-0.291-1.291-0.541-1.915-0.707c-0.042,0-0.083,0-0.125-0.041c-0.042,0-0.083,0-0.125,0
				c-0.042-0.043-0.083-0.043-0.167-0.043c0,0-0.042,0-0.083-0.041c-0.167-0.041-0.375-0.041-0.541-0.082c-0.042,0-0.042,0-0.083,0
				c-0.042,0-0.125-0.043-0.167-0.043s-0.042,0-0.083,0s-0.125,0-0.167-0.041c-0.042,0-0.083,0-0.125,0c-0.083,0-0.167,0-0.25,0
				c-0.042,0-0.083-0.041-0.125-0.041s-0.083,0-0.125,0s-0.125,0-0.167,0s-0.083,0-0.083,0c-0.083,0-0.208,0-0.292,0
				c-1.957,0-3.83,0.498-5.453,1.498c-0.042,0.041-0.125,0.082-0.208,0.125c-0.666,0.416-1.291,0.916-1.832,1.498
				c-0.167,0.166-0.375,0.334-0.541,0.541c0,0,0,0.041-0.042,0.041c-0.208,0.25-0.375,0.5-0.542,0.75
				c-0.042,0.041-0.083,0.084-0.083,0.084c-0.083,0.125-0.167,0.25-0.25,0.373c-0.042,0.043-0.083,0.125-0.083,0.168
				c-0.625,0.998-1.041,2.039-1.291,3.162c-0.042,0.043-0.042,0.043-0.042,0.084c-0.083,0.416-0.167,0.832-0.208,1.248
				c0,0.167,0,0.334,0,0.458c-0.042,0.208-0.042,0.375-0.042,0.583c0,0.167,0,0.333,0.042,0.541
				c0.042,0.791,0.167,1.582,0.375,2.331c0.5,1.749,1.415,3.33,2.706,4.621c1.998,1.998,4.662,3.122,7.493,3.122
				c0.083,0,0.208,0,0.292,0c0.042,0,0.083,0,0.125-0.042c0.042,0,0.125,0,0.167,0s0.083,0,0.125,0s0.083,0,0.125,0
				c0.083,0,0.125,0,0.208,0c0-0.042,0.042-0.042,0.083-0.042c0.042,0,0.125,0,0.167,0s0.042,0,0.083,0
				c0.292-0.041,0.625-0.125,0.916-0.166c0.042,0,0.042,0,0.083-0.042c0.042,0,0.125,0,0.167-0.042c0.042,0,0.083,0,0.125,0
				c0.042-0.041,0.083-0.041,0.125-0.041c0.042-0.042,0.125-0.042,0.167-0.042s0.083-0.041,0.083-0.041
				c0.583-0.167,1.166-0.375,1.707-0.666c0,0,0,0,0.042,0v-5.703h-5.828v-4.371h10.655v4.371H229.074z"/>
			<path fill="#474340" d="M252.666,141.412v-30.887h4.828v30.887H252.666z"/>
			<path fill="#474340" d="M305.861,141.412v-16.4l-9.658,14.402l-9.699-14.402v16.4h-4.828v-32.303l14.527,21.646l14.527-21.646
				v32.303H305.861z"/>
			<path fill="#474340" d="M343.051,140.205c-1.873-0.791-3.498-1.915-4.912-3.33c-1.416-1.415-2.539-3.039-3.33-4.912
				s-1.207-3.913-1.207-5.994c0-2.08,0.416-4.121,1.207-6.035c0.791-1.832,1.914-3.455,3.33-4.912
				c1.414-1.416,3.039-2.498,4.912-3.289s3.912-1.207,5.994-1.207c2.08,0,4.121,0.416,6.035,1.207
				c1.832,0.791,3.455,1.873,4.912,3.289c1.414,1.457,2.498,3.08,3.287,4.912c0.791,1.914,1.209,3.955,1.209,6.035
				c0,2.081-0.418,4.121-1.209,5.994c-0.789,1.873-1.873,3.497-3.287,4.912c-1.457,1.415-3.08,2.539-4.912,3.33
				c-1.914,0.791-3.955,1.207-6.035,1.207C346.963,141.412,344.924,140.996,343.051,140.205z M341.551,118.477
				c-1.998,1.998-3.121,4.662-3.121,7.492c0,2.831,1.123,5.495,3.121,7.493s4.662,3.122,7.494,3.122c2.83,0,5.494-1.124,7.492-3.122
				s3.121-4.662,3.121-7.493c0-2.83-1.123-5.494-3.121-7.492s-4.662-3.121-7.492-3.121
				C346.213,115.354,343.549,116.479,341.551,118.477z"/>
			<path fill="#474340" d="M405.182,114.854h-8.49v26.559h-4.871v-26.559h-8.49v-4.328h21.854v4.328H405.182z"/>
			<path fill="#474340" d="M433.404,140.205c-1.873-0.791-3.498-1.915-4.912-3.33c-1.416-1.415-2.539-3.039-3.33-4.912
				s-1.207-3.913-1.207-5.994c0-2.08,0.416-4.121,1.207-6.035c0.791-1.832,1.914-3.455,3.33-4.912
				c1.414-1.416,3.039-2.498,4.912-3.289s3.912-1.207,5.994-1.207c2.08,0,4.119,0.416,6.033,1.207
				c1.832,0.791,3.455,1.873,4.912,3.289c1.416,1.457,2.498,3.08,3.289,4.912c0.791,1.914,1.207,3.955,1.207,6.035
				c0,2.081-0.416,4.121-1.207,5.994s-1.873,3.497-3.289,4.912c-1.457,1.415-3.08,2.539-4.912,3.33
				c-1.914,0.791-3.953,1.207-6.033,1.207C437.316,141.412,435.277,140.996,433.404,140.205z M431.904,118.477
				c-1.998,1.998-3.121,4.662-3.121,7.492c0,2.831,1.123,5.495,3.121,7.493s4.662,3.122,7.494,3.122c2.828,0,5.492-1.124,7.49-3.122
				s3.123-4.662,3.123-7.493c0-2.83-1.125-5.494-3.123-7.492s-4.662-3.121-7.49-3.121
				C436.566,115.354,433.902,116.479,431.904,118.477z"/>
		</g>
	</g>
</g>
</svg>
