<?xml version="1.0" encoding="utf-8"?>
<!-- Generator: Adobe Illustrator 16.0.0, SVG Export Plug-In . SVG Version: 6.00 Build 0)  -->
<!DOCTYPE svg PUBLIC "-//W3C//DTD SVG 1.1//EN" "http://www.w3.org/Graphics/SVG/1.1/DTD/svg11.dtd">
<svg version="1.1" id="Layer_1" xmlns="http://www.w3.org/2000/svg" xmlns:xlink="http://www.w3.org/1999/xlink" x="0px" y="0px"
	 width="1328.053px" height="923.142px" viewBox="0 0 1328.053 923.142" enable-background="new 0 0 1328.053 923.142"
	 xml:space="preserve">
<path fill="none" stroke="#000000" stroke-width="1.1461" stroke-miterlimit="10" d="M423.767,473.839"/>
<path fill="none" stroke="#000000" stroke-width="1.1461" stroke-miterlimit="10" d="M377.724,465.036"/>
<path fill="#565656" stroke="#565656" stroke-width="1.1461" stroke-miterlimit="10" d="M790.346,668.493
	c0-61.898,26.826-284.555,26.826-284.555l26.822-40.253l14.443-263.222l28.882-39.199L905.89,0l49.409,18.568l29.567,60.307
	l42.756,169.701l63.744,122.336l28.887,313.239l-88.281-2.113l-197.692,23.993L790.346,668.493z"/>
<path fill="#474747" stroke="#474747" stroke-width="1.1461" stroke-miterlimit="10" d="M8.374,691.189
	c37.14-18.57,252.568-149.733,295.349-151.536c42.778-1.802,430.673-12.641,459.559,0c28.882,12.64,137.115,61.522,176.316,68.457
	c39.202,6.936,106.087,21.974,167.982,31.458c61.9,9.485,132.56,28.925,200.643,41.304L1033.89,829.827l-560.096,80.609
	l-129.904,8.637L74.223,789.894L8.374,691.189z"/>
<path fill="none" stroke="#293530" stroke-width="1.1461" stroke-miterlimit="10" d="M538.219,565.531
	c-3.587,1.155-13.214,23.16-2.212,25.909c11.002,2.751,57.768-2.062,68.768-2.062c11.005,0,40.576,4.447,47.798,2.912
	c7.217-1.536,8.591-3.255,11.689-5.321c3.094-2.06,4.124-10.657-2.409-9.968c-6.531,0.687-27.162-3.322-35.072-5.444
	c-7.907-2.122-26.276-15.988-31.362-15.59"/>
<path fill="#293530" stroke="#293530" stroke-width="1.1461" stroke-miterlimit="10" d="M684.776,358.001
	c-5.959-1.377-14.211,5.959-20.17,6.876c-5.963,0.916-20.762,2.291-22.804,0.947l0.177-0.109c-2.046-3.485-5.418-6.445-5.887-7.855
	c-0.717-2.145,3.984-6.131,6.155-13.276c2.171-7.144-6.872-10.304-7.584-14.591c-0.716-4.291,6.351-9.049,5.263-14.705
	c-1.316-6.823-9.552-8.876-11.696-15.307c-2.145-6.432,8.095-12.143,2.749-20.011c-4.965-7.315-17.555-11.904-20.926-14.956
	c-6.555-5.932-0.97-15.62-7.253-23.574c-5.404-6.841-20.295-6.775-24.71-10.169c-4.477-3.445-2.699-18.102-15.186-16.733
	c-7.589,0.83-14.255,0.168-21.404-1.368c0.43-1.502,9.467-17.485,10.762-19.334c3.029-4.329,2.38-17.527,1.73-23.585
	c-0.646-6.058,9.738-21.423,9.521-24.02c-0.215-2.595-1.945-0.649-3.246-1.95c-3.078-3.075,1.949-4.542,0-5.19
	c-1.945-0.649-20.771,8.438-25.963,11.035c-5.193,2.595-24.02-1.298-31.27,0c-7.256,1.299-10.927,22.068-10.927,22.068
	c-7.79-12.981-48.037-37.648-62.317-41.541c-14.281-3.896-44.79-0.468-73.352,27.263c-9.555,9.279-12.332,33.106-14.277,39.598
	c0,0-7.788-4.979-11.471-4.761c-3.678,0.217-13.198,8.871-16.227,8.871c-3.029,0-37.65,4.762-43.059,4.762
	c-5.41,0-8.223,4.362-8.874,5.533c-0.646,1.173,2.382,1.173,2.813,3.338c0.435,2.162,2.165,8.005,3.029,11.251
	c0.869,3.248,2.164,4.112,3.678,4.761c1.516,0.647,10.604,7.79,15.15,8.003c4.542,0.22,14.712,4.979,20.123,7.36
	c5.408,2.378,28.127,11.9,30.076,14.714c1.945,2.814,17.092,7.571,25.316,7.356c3.028,8.439,5.406,22.069,28.127,20.988
	c9.297-0.443,9.57,10.856,14.83,5.256c0.021,0.007,0.043,0.012,0.061,0.021c-0.891,1.048-1.462,1.925-1.54,2.521
	c-0.456,3.438-0.009,8.878,2.042,12.173c2.732,4.405,11.939,34.131,10.567,40.093c-0.911,3.936-20.165,44.099-37.819,68.655
	c-25.294-4.929-48.29-9.605-56.123-11.728c-0.152-0.165-0.269-0.315-0.432-0.485c-11.067-11.455-40.465-42.087-35.651-45.559
	c3.358,2.325,17.066,5.105,22.061,4.336c3.481-0.537,10.347-6.018,12.149-7.126c4.672-2.878,14.285-16.663,14.285-16.663
	s1.652-0.23,2.36-0.575c1.251-0.611,2.571-3.788,2.187-5.127c-0.483-1.67-5.037-2.585-5.037-2.585s-6.892-13.485-11.286-13.48
	c-2.013,0.005-5.276,4.175-5.157,6.185c0.21,3.689,10.711,10.186,10.711,10.186l-9.753,10.47c0,0-19.789-2.876-24.397-7.264
	c-4.628-4.403-8.491-24.087-8.491-24.087l7.274-15.117c0,0,6.541,11.443,10.484,11.938c1.875,0.235,5.786-2.431,6.233-4.267
	c0.965-3.918-7.573-14.246-7.573-14.246s0.398-4.952-0.548-6.186c-1.025-1.336-4.728-2.845-6.326-2.312
	c-0.902,0.301-2.581,2.799-2.581,2.799s-0.793,0.712-2.021,1.777l-6.604-4.909c-0.007-1.786-0.135-3.823-0.631-4.701
	c-0.943-1.656-5.688-2.041-5.688-2.041l-6.691,4.562c-0.004-2.06-7.033-6.458-7.033-6.458l-12.552,3.976l-5.271,6.982
	c0,0-3.998-1.321-5.273-0.92c-1.314,0.416-3.914,5.459-3.838,6.834c0.099,1.836,2.521,3.698,2.521,3.698s-4.538,9.37-4.131,15.135
	c0.119,1.674-5.949,5.54-5.455,7.519c0.643,2.588,0.199,6.553,1.332,9.375c0.723,1.8,2.746,2.024,3.613,3.811
	c3.201,6.602,6.678,19.105,10.385,22.732c3.77,3.693,16.406,12.263,16.406,12.263c8.369,18.504,14.1,35.765,24.798,49.013
	c0,0,0.085,0.014,0.218,0.033c-6.051,9.337-11.396,18.99-11.396,21.258c0,4.674,16.507,11.553,17.881,16.365
	c1.373,4.815,28.195,44.702,42.636,56.392c14.442,11.692,93.179,51.576,90.258,54.327c-2.924,2.751-48.938,0.953-53.956,0
	c-25.3-4.812-42.834,6.935,2.207,15.817c-7.906-0.345-27.162,4.123-17.191,6.53c-10.315,3.44,5.504,9.285,17.537,9.285
	c12.031,0,47.105-4.126,56.389-4.126c9.285,0,47.45,2.062,52.264,1.72c4.814-0.343,6.879-3.781,6.879-9.973
	c0-6.188-2.752-9.973-4.361-15.375l-0.02-0.013c3.066,1.372,5.805,2.24,7.936,2.321c11.918,0.461,27.961-7.793,33.922-7.793
	c1.846,0,5.366,1.104,9.771,2.517c-3.586,1.166-13.207,23.157-2.207,25.906c11.002,2.751,57.768-2.062,68.768-2.062
	c11.005,0,40.576,4.448,47.798,2.912c7.217-1.535,8.591-3.255,11.689-5.32c3.094-2.06,4.124-10.658-2.409-9.969
	c-6.531,0.688-27.162-3.322-35.072-5.444c-7.907-2.122-26.271-15.985-31.36-15.589c6.893-9.035,42.936-69.422,62.767-89.683
	c21.092-21.548,36.516-53.709,39.887-56.848c5.041-4.701,13.297-7.34,13.753-13.297
	C712.288,390.093,690.739,359.375,684.776,358.001z M258.627,294.885l-1.452-5.088l4.36-3.636l2.183,4.663L258.627,294.885z
	 M279.28,298.63l2.564-5.282l0.773,1.537C280.767,296.322,280.784,297.737,279.28,298.63z M496.349,407.974
	c-0.566,4.813,0.918,8.025,6.423,9.169c-3.177,1.271-21.766,21.293-11.79,29.406c1.508,0.794,2.614,1.421,3.078,1.768
	c-1.248-0.492-2.25-1.094-3.078-1.768c-7.433-3.911-24.861-11.988-25.914-11.988c-0.438,0-17.586-3.129-39.946-7.333l-1.354,0.374
	c15.293-14.374,30.509-37.715,40.039-56.731c4.125,7.821,5.721,20.14,19.71,20.602c5.233,0.168,4.356,11.456,7.792,11.456
	c3.438,0,18.568-4.814,18.568,0C499.44,400.638,496.92,403.159,496.349,407.974z"/>
<path fill="none" stroke="#1E2823" stroke-width="1.1461" stroke-miterlimit="10" d="M448.214,139.045
	c-1.605-8.438,5.961-18.753-5.046-20.129c-11.003-1.375-6.188-19.256-11.689-19.256c-5.501,0-16.733-7.564-45.156,0
	c-28.425,7.565-36.676,17.193-37.363,23.381"/>
<path fill="none" stroke="#1E2823" stroke-width="1.1461" stroke-miterlimit="10" d="M434.517,132.378
	c1.09-7.962,7.165-13.2,0-14.705c-7.162-1.509-3.723-13.886-13.695-13.886c-9.974,0-29.451,12.64-34.496,13.886
	c-5.046,1.243-35.303,19.124-41.494,18.435"/>
<path fill="none" stroke="#1E2823" stroke-width="1.1461" stroke-miterlimit="10" d="M382.374,139.045
	c2.344-5.687,1.887-7.062-6.479-6.373c-8.37,0.687-45.506-5.134-51.006,6.373c-5.502,11.504,12.38,11.504,9.626,11.504
	c-2.751,0-30.943,17.193-44.696,12.379"/>
<path fill="#D3B900" stroke="#D3B900" stroke-width="1.1461" stroke-miterlimit="10" d="M386.322,213.169
	c0,14.56-0.577,27.239-7.794,27.239c-7.215,0-19.084-11.804-19.084-26.363c0-14.558,11.869-26.359,19.084-26.359
	C385.745,187.686,386.322,198.609,386.322,213.169z"/>
<path fill="#D3B900" stroke="#D3B900" stroke-width="1.1461" stroke-miterlimit="10" d="M448.214,210.347
	c0,14.558-2.61,26.361-9.825,26.361c-7.217,0-17.567-11.804-17.567-26.361c0-14.56,10.351-26.359,17.567-26.359
	C445.604,183.987,448.214,195.787,448.214,210.347z"/>
<path fill="#686868" stroke="#686868" stroke-width="1.1461" stroke-miterlimit="10" d="M1020.665,705.432V499.139l24.068-68.312
	l75.52,23.614l24.203,81.306l58.435,58.276l30.945,60.859l74.387,15.636v48.666l-132.17,33.453h-106.655L1020.665,705.432z"/>
<path fill="#FFF30B" stroke="#FFF30B" stroke-width="1.1461" stroke-miterlimit="10" d="M386.322,214.045
	c0,9.592-1.679,25.678-5.209,25.678c-11.755,0-15.651-16.086-15.651-25.678c0-9.59,6.342-24.184,17.516-24.184
	C386.506,189.861,386.322,204.455,386.322,214.045z"/>
<path fill="#FFF30B" stroke="#FFF30B" stroke-width="1.1461" stroke-miterlimit="10" d="M449.015,210.347
	c0,9.588-4.125,25.305-6.531,25.305c-11.755,0-15.646-15.032-15.646-24.622s4.815-24.188,15.987-24.188
	C446.355,186.842,449.015,200.757,449.015,210.347z"/>
<path fill="#1E2823" d="M330.476,468.985c-9.975-8.556-17.349-14.873-17.965-15.15C310.302,452.836,318.649,459.702,330.476,468.985
	z"/>
<path fill="#1E2823" stroke="#1E2823" stroke-width="1.1461" stroke-miterlimit="10" d="M396.333,243.598
	c-4.984-4.253-3.863-18.024,0.094-20.33C399.955,225.691,400.385,240.82,396.333,243.598z"/>
<path fill="#1E2823" stroke="#1E2823" stroke-width="1.1461" stroke-miterlimit="10" d="M410.149,243.598
	c-4.985-4.253-3.865-18.024,0.092-20.33C413.771,225.691,414.204,240.82,410.149,243.598z"/>
<path fill="#1E2823" stroke="#1E2823" stroke-width="1.1461" stroke-miterlimit="10" d="M369.358,260.808
	c2.978-2.751,5.73-5.271,7.336-5.73c1.604-0.457,19.254,0,24.068,0c4.813,0,14.9-0.866,21.318-0.204
	c6.418,0.663,12.148,5.02,17.65,5.935"/>
<path fill="#1E2823" stroke="#1E2823" stroke-width="1.1461" stroke-miterlimit="10" d="M514.065,198.001
	c1.25,5.097-5.971-26.798,4.75-26.822c0,0,17.191-9.281,22.35-9.626c5.159-0.342,8.925-13.068,8.94-11.004
	c0.042,5.578,1.762,21.875-1.39,23.611c-3.152,1.737-4.299,17.21-9.742,20.075C533.528,197.102,513.512,195.749,514.065,198.001z"/>
<path fill="#1E2823" stroke="#1E2823" stroke-width="1.1461" stroke-miterlimit="10" d="M354.459,256.109
	c2.888-2.051-12.379-12.377-13.409-16.387c-1.029-4.002-10.66-9.401-11.689-9.744c-1.031-0.347-7.91-4.128-19.601-3.098
	c-11.689,1.034-10.657,0.347-19.94,0c-9.286-0.343-19.77-11.659-17.848-8.271c4.537,8.005,25.857,21.239,41.128,22.215
	c15.271,0.977,19.623,9.858,23.608,11.005C340.692,252.975,352.467,257.523,354.459,256.109z"/>
<path fill="#1E2823" stroke="#1E2823" stroke-width="1.1461" stroke-miterlimit="10" d="M607.313,243.598
	c6.607,6.205,0.197,19.498,10.307,26.287c4.342,2.917,13.502,5.543,18.467,12.858c5.346,7.868-4.893,13.579-2.748,20.011
	c2.145,6.431,10.38,8.483,11.696,15.307c1.088,5.657-5.979,10.414-5.263,14.705c0.712,4.287,9.756,7.447,7.584,14.591
	c-2.172,7.146-6.872,11.132-6.156,13.276c0.717,2.143,8.124,7.857,7.408,13.575c-0.717,5.715-5.268,8.573-5.98,13.574
	c-0.711,5.003,2.269,8.786,1.557,14.226c-0.717,5.436-6.557,6.496-7.989,11.497c-1.429,5.004-0.263,10.752-0.263,16.47
	c0,5.715-9.023,9.973-9.023,13.543s1.093,10.472-1.016,15.005c-4.634,9.964-9.671,8.13-11.968,15.005
	c-1.821,5.467-4.958,13.415-6.122,16.126c-2.91,6.783-17.608,10.396-19.441,12.228c-1.834,1.835-21.41,22.157-20.721,33.428
	c-4.851-9.25,17.421-34.27,19.254-36.105c1.834-1.831,13.049-3.326,15.959-10.109c1.164-2.711,4.141-12.873,5.963-18.34
	c2.297-6.875,7.334-5.041,11.968-15.005c2.108-4.533,1.017-11.435,1.017-15.005s9.023-7.828,9.023-13.543
	c0-5.718-1.166-11.467,0.262-16.47c1.433-5.001,7.273-6.062,7.989-11.497c0.712-5.439-2.268-9.223-1.556-14.226
	c0.711-5.001,5.263-7.859,5.979-13.574c0.717-5.718-6.69-11.433-7.406-13.575c-0.717-2.145,3.984-6.131,6.155-13.276
	c2.171-7.144-6.872-10.304-7.584-14.591c-0.716-4.291,6.351-9.049,5.263-14.705c-1.316-6.823-9.552-8.876-11.696-15.307
	c-2.145-6.432,8.095-12.143,2.749-20.011c-4.965-7.315-14.125-9.941-18.469-12.858c-10.109-6.789-3.697-20.082-10.306-26.287"/>
<path fill="#1E2823" stroke="#1E2823" stroke-width="1.1461" stroke-miterlimit="10" d="M474.583,388.806
	c4.046,1.116-3.742-22.01,6.396-32.032c7.492-7.407,25.74-15.853,21.555-15.497c-7.689,0.653-21.564,6.342-24.234,8.273
	c-7.573,5.476-13.875,20.192-13.633,21.907C464.909,373.171,469.561,387.42,474.583,388.806z"/>
<path fill="#1E2823" stroke="#1E2823" stroke-width="1.1461" stroke-miterlimit="10" d="M542.877,210.349
	c-6.132-2.522-30.316-8.388-36.544-5.455s-31.678,18.604-35.076,28.539s-11.821,21.778-16.221,24.284
	c-4.398,2.504-25.532,17.529-31.27,19.36s-18.09,17.868-27.648,13.908c2.396,1.93,5.252,6.53,8.574,5.366
	c2.535-2.707,13.729-13.982,26.987-20.109s20.698-7.174,26.911-15.435c6.215-8.26,23.842-45.004,48.25-50.459
	c24.409-5.455,32.849,1.961,34.841,2.368C542.877,210.349,542.877,210.349,542.877,210.349z"/>
<path fill="#1E2823" stroke="#1E2823" stroke-width="1.1461" stroke-miterlimit="10" d="M497.105,413.615
	c4.334,1.348,37.954,4.786,40.437,4.403c2.483-0.383-30.914,0.664-34.771-0.876C498.914,415.603,497.105,413.615,497.105,413.615z"
	/>
<path fill="#1E2823" stroke="#1E2823" stroke-width="1.1461" stroke-miterlimit="10" d="M488.292,437.939
	c2.678,1.734,34.354,12.936,43.902,13.89c9.55,0.954,15.491-1.337,16.447-0.573c0.955,0.764-33.451,4.968-39.371,3.248
	C503.349,452.785,486.157,449.539,488.292,437.939z"/>
<path fill="#1E2823" stroke="#1E2823" stroke-width="1.1461" stroke-miterlimit="10" d="M596.228,554.775
	c-3.586-0.869-26.788,13.196-34.048,13.579c-7.259,0.383-30.562-8.406-34.957-8.979c-4.394-0.572-23.112,6.687-30.18,7.833
	s-12.228-2.675-17.929-4.009l0,0c-10.521-7.471-28.219-18.934-31.529-21.712c-4.699-3.942-52.816-26.183-60.994-30.619
	c-5.168-2.805-35.792-25.927-56.115-41.883c20.939,17.962,53.391,45.836,59.214,48.746c8.596,4.298,84.724,49.024,90.831,53.741
	c5.73,4.426,10.738,9.583,3.566,22.289c12.656,0.271,5.495-19.404,2.518-25.348c1.789,0.594,4.842,2.085,7.307,2.266
	c10.606,0.777,27.427-6.552,34.316-7.745c1.254-0.217,5.057,0.956,8.426,2.013c-0.754,0.776-2.191,2.72-2.773,4.078
	c3.426,2.697,29.639,6.778,35.177,6.586s33.524-15.142,34.155-17.964C600.338,555.959,599.146,555.482,596.228,554.775z"/>
<path fill="#1E2823" stroke="#1E2823" stroke-width="1.1461" stroke-miterlimit="10" d="M378.987,418.407
	c28.758,5.342,38.898,8.325,44.779,9.194c7.206-7.414,19.145-21.445,25.248-31.188C423.767,425.464,391.207,417.078,378.987,418.407
	z"/>
<path fill="#1E2823" stroke="#1E2823" stroke-width="1.1461" stroke-miterlimit="10" d="M305.077,400.62
	c1.911,0.461,3.648,2.863,7.078,3.819c3.43,0.955,10.709,2.24,10.709,2.24s-0.488-0.357-7.156-7.577
	c-1.592-0.139-4.744,0.005-7.684-1.233c-6.803-2.865-14.673,9.189-20.438,11.461c-2.377,0.936-5.271-2.973-8.186-4.873
	c2.898,4.8,6.867,10.501,8.059,11.736C293.235,407.812,299.978,400.811,305.077,400.62z"/>
</svg>
