<?xml version="1.0" encoding="utf-8"?>
<!-- Generator: Adobe Illustrator 16.0.0, SVG Export Plug-In . SVG Version: 6.00 Build 0)  -->
<!DOCTYPE svg PUBLIC "-//W3C//DTD SVG 1.1//EN" "http://www.w3.org/Graphics/SVG/1.1/DTD/svg11.dtd">
<svg version="1.1" id="Layer_1" xmlns="http://www.w3.org/2000/svg" xmlns:xlink="http://www.w3.org/1999/xlink" x="0px" y="0px"
	 width="2757.2px" height="1348.298px" viewBox="0 0 2757.2 1348.298" enable-background="new 0 0 2757.2 1348.298"
	 xml:space="preserve">
<path fill="#727272" stroke="#727272" stroke-width="1.1461" stroke-miterlimit="10" d="M2757.2,0L6.481,0.117L2.459,1205.409
	l234.803,115.847l118.641-156.519l119.625-150.267l14.463-162.637c0,0,113.62-37.505,134.094-69.188
	c8.826-13.662-2.628-49.88,3.438-64.972c5.89-14.66,28.125-39.094,41.256-47.878c25.589-17.113,86.511-33.777,116.901-38.673
	c17.82-2.872,54.665-4.267,72.201,0c17.499,4.255,52.707,19.043,63.982,33.083c4.173,5.2,6.846,25.777,6.846,25.777v35.53
	l4.584,54.215l4.585,47.859l22.923-20.209v-31.979l11.269-40.533l36.336-18.522v-46.548c0,0,10.7-39.891,14.349-53.165
	c0.296-1.07,0.734-3.264,1.195-4.271c4.903-10.676,16.785-31.888,26.066-39.089c15.849-12.304,55.954-23.188,75.734-26.554
	c17.633-3.002,54.437-5.209,71.548,0c21.726,6.614,75.425,50.62,75.425,50.62s109.851-17.033,141.989-34.382
	c5.229-2.823,11.629-14.646,17.355-16.238c58.419-16.234,182.736,23.963,237.195,50.62c25.251,12.358,85.996,72.459,85.996,72.459
	l78.958,192.414l165.156,91.727l-22.224,126.386l139.123,46.799l233.467,194.135l153.624-80.469l253.837-74.355V0z"/>
</svg>
