<?xml version="1.0" encoding="utf-8"?>
<!-- Generator: Adobe Illustrator 16.0.0, SVG Export Plug-In . SVG Version: 6.00 Build 0)  -->
<!DOCTYPE svg PUBLIC "-//W3C//DTD SVG 1.1//EN" "http://www.w3.org/Graphics/SVG/1.1/DTD/svg11.dtd">
<svg version="1.1" id="Layer_1" xmlns="http://www.w3.org/2000/svg" xmlns:xlink="http://www.w3.org/1999/xlink" x="0px" y="0px"
	 width="2754.742px" height="718.976px" viewBox="0 0 2754.742 718.976" enable-background="new 0 0 2754.742 718.976"
	 xml:space="preserve">
<path fill="#515151" stroke="#515151" stroke-width="1.1461" stroke-miterlimit="10" d="M0,0.439l1282.995,53.125l174.404,53.303
	l209.404,130.654l209.145,27.505l120.966-48.136l140.969,103.146l41.256,224.438v150.329l24.068-24.066v-41.856l24.069-119.742
	l24.066-72.201l17.189,68.763l11.772,111.444l17.19,23.471l12.142-96.141l20.785-55.964l30.943-30.945
	c0,0,0.078,72.849,17.191,86.909c13.283,10.912,53.857-8.565,68.764,0c11.837,6.801,17.438,37.961,27.507,47.182
	c23.82,21.812,116.899,55.012,116.899,55.012l163.015,72.308V-2.242L0,0.439z"/>
</svg>
