<?xml version="1.0" encoding="utf-8"?>
<!-- Generator: Adobe Illustrator 16.0.0, SVG Export Plug-In . SVG Version: 6.00 Build 0)  -->
<!DOCTYPE svg PUBLIC "-//W3C//DTD SVG 1.1//EN" "http://www.w3.org/Graphics/SVG/1.1/DTD/svg11.dtd">
<svg version="1.1" id="Layer_1" xmlns="http://www.w3.org/2000/svg" xmlns:xlink="http://www.w3.org/1999/xlink" x="0px" y="0px"
	 width="1205.632px" height="842.806px" viewBox="0 0 1205.632 842.806" enable-background="new 0 0 1205.632 842.806"
	 xml:space="preserve">
<path fill="#474747" stroke="#474747" stroke-width="0.5" stroke-miterlimit="10" d="M1202.816-1.001
	c-30,1-281.91,34.271-309.91,60.271S737.333,77.853,713.333,77.853s-142.488,15-142.488,15s-43.882,62-41.697,69
	c2.186,7-2.764,33-2.764,33l-17.791-19v-27c0,0-3.21-29.229-10.271-35c-9.107-7.443-46.879-4-46.879-4l-68.11,3l-69.529,12
	l-80.799,0.394l-35,42l-31.672,61.606l-21,48.322l-34,27.678l13,17l-10,26.214l16,26.171c0,0,11.87-2.777,14,0
	c6.455,8.417-11,40.98-11,40.98l-5,12.723l-12.552,207.804L2.816,842.806V-0.949L1202.816-1.001z"/>
</svg>
