<?xml version="1.0" encoding="utf-8"?>
<!-- Generator: Adobe Illustrator 16.0.0, SVG Export Plug-In . SVG Version: 6.00 Build 0)  -->
<!DOCTYPE svg PUBLIC "-//W3C//DTD SVG 1.1//EN" "http://www.w3.org/Graphics/SVG/1.1/DTD/svg11.dtd">
<svg version="1.1" id="Layer_1" xmlns="http://www.w3.org/2000/svg" xmlns:xlink="http://www.w3.org/1999/xlink" x="0px" y="0px"
	 width="414.274px" height="843.807px" viewBox="0 0 414.274 843.807" enable-background="new 0 0 414.274 843.807"
	 xml:space="preserve">
<path fill="#3A3A3A" stroke="#3A3A3A" stroke-width="0.5" stroke-miterlimit="10" d="M0.854,0.051v843.756l367.801-1.631
	l-8.378-6.122l-23.998-8.999l-14.999-24l-8.134-26.998v-28.499l-54.863-25.498l-25.499,9c0,0-48.916-84-50.997-115.495
	c-1.325-20.042,28.01-57.814,22.498-77.129c-8.293-29.061-89.995-80.707-89.995-80.707l-88.495-66.421v-95.227v-68.997v-35.998
	v-41.998v-14.999V90.591l11.999-32.998l11.999,13.5l20.999,26.998v59.997l17.999,58.497v70.496l15-61.497l7.499-67.496
	c0,0-1.5-80.996,16.499-118.494c18-37.498,95.996-9,152.992-10.5c37.275-0.98,86.341-17.634,133.494-29.043V0L0.854,0.051z"/>
</svg>
