<?xml version="1.0" encoding="utf-8"?>
<!-- Generator: Adobe Illustrator 16.0.0, SVG Export Plug-In . SVG Version: 6.00 Build 0)  -->
<!DOCTYPE svg PUBLIC "-//W3C//DTD SVG 1.1//EN" "http://www.w3.org/Graphics/SVG/1.1/DTD/svg11.dtd">
<svg version="1.1" id="Layer_1" xmlns="http://www.w3.org/2000/svg" xmlns:xlink="http://www.w3.org/1999/xlink" x="0px" y="0px"
	 width="1422.03px" height="1930.49px" viewBox="0 0 1422.03 1930.49" enable-background="new 0 0 1422.03 1930.49"
	 xml:space="preserve">
<path fill="#3A3A3A" stroke="#3A3A3A" stroke-width="1.1461" stroke-miterlimit="10" d="M1.233,2.421
	c113.644,26.925,177.484,64.271,177.484,64.271l195.938,51.574l34.382,48.137v72.199l34.384,89.396l17.189-68.766l10.315-51.574
	V187.03l37.699-120.339l96.392,127.213l17.192,92.835l6.874,65.325v48.135l23.986,103.147v37.82l13.834,27.505l13.754-154.719
	l65.327-72.204l17.19-48.136L794.12,66.691l55.01,75.642l144.405,55.01l72.205,55.013l-3.438,79.081l75.64,55.01l79.079,233.204
	v222.493l-261.305,392.094l-44.697,104.598v89.394l-44.697,17.192l-65.324,89.394l-151.283,17.19l-206.293,223.484l-309.153,75.643
	L89.12,1930.49h1332.91V0L1.233,2.421z"/>
</svg>
