<?xml version="1.0" encoding="utf-8"?>
<!-- Generator: Adobe Illustrator 16.0.0, SVG Export Plug-In . SVG Version: 6.00 Build 0)  -->
<!DOCTYPE svg PUBLIC "-//W3C//DTD SVG 1.1//EN" "http://www.w3.org/Graphics/SVG/1.1/DTD/svg11.dtd">
<svg version="1.1" id="Layer_1" xmlns="http://www.w3.org/2000/svg" xmlns:xlink="http://www.w3.org/1999/xlink" x="0px" y="0px"
	 width="3053.891px" height="958.844px" viewBox="0 0 3053.891 958.844" enable-background="new 0 0 3053.891 958.844"
	 xml:space="preserve">
<g>
	<path fill="#0E9E97" stroke="#0E9E97" stroke-width="1.1461" stroke-miterlimit="10" d="M1526.785,22.218
		c1.146,0,2.252,0.052,3.38,0.076c1.048-0.024,2.075-0.076,3.139-0.076H1526.785z"/>
	<path fill="#0E9E97" stroke="#0E9E97" stroke-width="1.1461" stroke-miterlimit="10" d="M762.812,22.218
		c1.146,0,2.252,0.052,3.38,0.076c1.048-0.024,2.075-0.076,3.139-0.076H762.812z"/>
	<path fill="#0E9E97" stroke="#0E9E97" stroke-width="1.1461" stroke-miterlimit="10" d="M0.18,958.844l385.061-2.434h2668.659
		V19.944c-75.703,0-110.991,58.45-192.626,58.45c-75.699,0-110.987-58.45-192.622-58.45c-81.636,0-116.919,58.45-192.622,58.45
		c-74.613,0-102.863-54.538-181.83-56.103c-73.574,1.567-109.035,58.377-189.544,58.377c-75.703,0-110.991-58.451-192.622-58.451
		c-81.635,0-116.924,58.451-192.626,58.451c-74.64,0-110.021-56.778-189.242-58.375c-73.538,1.597-108.997,58.375-189.485,58.375
		c-75.703,0-110.991-58.451-192.622-58.451c-81.636,0-116.921,58.451-192.624,58.451c-74.64,0-110.022-56.778-189.242-58.375
		c-73.535,1.597-108.999,58.375-189.488,58.375c-75.333,0-110.663-57.866-191.463-58.424v-0.007c-0.041,0-0.08,0.002-0.122,0.002
		c-0.351-0.002-0.685-0.022-1.036-0.022c-81.577,0-116.875,58.363-192.465,58.446C116.613,80.147,81.262,22.238-0.008,22.238"/>
	<path fill="#0E9E97" stroke="#0E9E97" stroke-width="1.1461" stroke-miterlimit="10" d="M2290.759,22.218
		c1.171,0,2.292,0.052,3.44,0.074c1.027-0.022,2.035-0.074,3.078-0.074H2290.759z"/>
</g>
</svg>
