<?xml version="1.0" encoding="utf-8"?>
<!-- Generator: Adobe Illustrator 16.0.0, SVG Export Plug-In . SVG Version: 6.00 Build 0)  -->
<!DOCTYPE svg PUBLIC "-//W3C//DTD SVG 1.1//EN" "http://www.w3.org/Graphics/SVG/1.1/DTD/svg11.dtd">
<svg version="1.1" id="Layer_1" xmlns="http://www.w3.org/2000/svg" xmlns:xlink="http://www.w3.org/1999/xlink" x="0px" y="0px"
	 width="3053.891px" height="772.896px" viewBox="0 0 3053.891 772.896" enable-background="new 0 0 3053.891 772.896"
	 xml:space="preserve">
<g>
	<path fill="#117F77" stroke="#117F77" stroke-width="1.1461" stroke-miterlimit="10" d="M1527.404,21.068
		c1.146,0,2.252,0.054,3.38,0.076c1.048-0.022,2.075-0.076,3.139-0.076H1527.404z"/>
	<path fill="#117F77" stroke="#117F77" stroke-width="1.1461" stroke-miterlimit="10" d="M763.431,21.068
		c1.146,0,2.252,0.054,3.38,0.076c1.048-0.022,2.075-0.076,3.139-0.076H763.431z"/>
	<path fill="#117F77" stroke="#117F77" stroke-width="1.1461" stroke-miterlimit="10" d="M2291.378,21.068
		c1.171,0,2.292,0.051,3.44,0.074c1.027-0.023,2.035-0.074,3.078-0.074H2291.378z"/>
	<path fill="#117F77" stroke="#117F77" stroke-width="1.1461" stroke-miterlimit="10" d="M0.799,772.896l383.822-3.494h2669.897
		V18.794c-75.703,0-110.991,58.45-192.626,58.45c-75.699,0-110.987-58.45-192.622-58.45c-81.636,0-116.919,58.45-192.622,58.45
		c-74.613,0-102.863-54.537-181.83-56.102c-73.574,1.566-109.035,58.376-189.544,58.376c-75.703,0-110.991-58.45-192.622-58.45
		c-81.635,0-116.924,58.45-192.626,58.45c-74.64,0-110.021-56.778-189.242-58.374c-73.538,1.596-108.997,58.374-189.485,58.374
		c-75.703,0-110.991-58.45-192.622-58.45c-81.636,0-116.921,58.45-192.624,58.45c-74.64,0-110.022-56.778-189.242-58.374
		c-73.535,1.596-108.999,58.374-189.488,58.374c-75.698,0-110.986-58.45-192.621-58.45s-116.922,58.45-192.625,58.45v0.362
		c-0.027,0-0.053,0.003-0.081,0.003c-75.698,0-110.987-58.45-192.622-58.45"/>
</g>
</svg>
