<?xml version="1.0" encoding="utf-8"?>
<!-- Generator: Adobe Illustrator 16.0.0, SVG Export Plug-In . SVG Version: 6.00 Build 0)  -->
<!DOCTYPE svg PUBLIC "-//W3C//DTD SVG 1.1//EN" "http://www.w3.org/Graphics/SVG/1.1/DTD/svg11.dtd">
<svg version="1.1" id="Layer_1" xmlns="http://www.w3.org/2000/svg" xmlns:xlink="http://www.w3.org/1999/xlink" x="0px" y="0px"
	 width="3055.538px" height="1144px" viewBox="0 0 3055.538 1144" enable-background="new 0 0 3055.538 1144" xml:space="preserve">
<g>
	<path fill="#1AC1BC" stroke="#1AC1BC" stroke-width="1.1461" stroke-miterlimit="10" d="M764.45,22.574
		c1.146,0,2.252,0.052,3.38,0.076c1.048-0.024,2.075-0.076,3.139-0.076H764.45z"/>
	<path fill="#1AC1BC" stroke="#1AC1BC" stroke-width="1.1461" stroke-miterlimit="10" d="M1528.424,22.574
		c1.146,0,2.252,0.052,3.38,0.076c1.048-0.024,2.075-0.076,3.139-0.076H1528.424z"/>
	<path fill="#1AC1BC" stroke="#1AC1BC" stroke-width="1.1461" stroke-miterlimit="10" d="M1.818,1144l383.43-2.434h2670.29V20.3
		c-75.703,0-110.991,58.45-192.626,58.45c-75.699,0-110.987-58.45-192.622-58.45c-81.636,0-116.919,58.45-192.622,58.45
		c-74.612,0-102.863-54.537-181.83-56.103c-73.574,1.567-109.034,58.377-189.544,58.377c-75.703,0-110.991-58.45-192.622-58.45
		c-81.635,0-116.923,58.45-192.626,58.45c-74.64,0-110.02-56.778-189.242-58.374c-73.538,1.596-108.996,58.374-189.485,58.374
		c-75.703,0-110.991-58.45-192.622-58.45c-81.635,0-116.922,58.45-192.624,58.45c-74.64,0-110.022-56.778-189.242-58.374
		c-73.536,1.596-108.999,58.374-189.487,58.374c-75.699,0-110.987-58.45-192.622-58.45c-81.636,0-116.921,58.45-192.624,58.45v0.009
		c-0.162,0-0.314,0.012-0.475,0.012C116.923,81.045,81.635,22.594,0,22.594"/>
	<path fill="#1AC1BC" stroke="#1AC1BC" stroke-width="1.1461" stroke-miterlimit="10" d="M2292.397,22.574
		c1.17,0,2.292,0.052,3.44,0.073c1.027-0.021,2.034-0.073,3.078-0.073H2292.397z"/>
</g>
</svg>
