<?xml version="1.0" encoding="utf-8"?>
<!-- Generator: Adobe Illustrator 16.0.0, SVG Export Plug-In . SVG Version: 6.00 Build 0)  -->
<!DOCTYPE svg PUBLIC "-//W3C//DTD SVG 1.1//EN" "http://www.w3.org/Graphics/SVG/1.1/DTD/svg11.dtd">
<svg version="1.1" id="Layer_1" xmlns="http://www.w3.org/2000/svg" xmlns:xlink="http://www.w3.org/1999/xlink" x="0px" y="0px"
	 width="3053.891px" height="589.632px" viewBox="0 0 3053.891 589.632" enable-background="new 0 0 3053.891 589.632"
	 xml:space="preserve">
<g>
	<path fill="#0A635A" stroke="#0A635A" stroke-width="1.1461" stroke-miterlimit="10" d="M1527.589,19.583
		c1.146,0,2.252,0.054,3.38,0.076c1.048-0.022,2.075-0.076,3.138-0.076H1527.589z"/>
	<path fill="#0A635A" stroke="#0A635A" stroke-width="1.1461" stroke-miterlimit="10" d="M763.615,19.583
		c1.147,0,2.252,0.054,3.38,0.076c1.048-0.022,2.075-0.076,3.139-0.076H763.615z"/>
	<path fill="#0A635A" stroke="#0A635A" stroke-width="1.1461" stroke-miterlimit="10" d="M1.269,589.632l383.168-3.494h2670.266
		V17.309c-75.703,0-110.992,58.45-192.627,58.45c-75.698,0-110.986-58.45-192.622-58.45c-81.635,0-116.919,58.45-192.622,58.45
		c-74.612,0-102.863-54.537-181.83-56.103c-73.574,1.567-109.034,58.377-189.543,58.377c-75.703,0-110.992-58.45-192.622-58.45
		c-81.636,0-116.924,58.45-192.626,58.45c-74.639,0-110.021-56.778-189.241-58.374c-73.54,1.596-108.998,58.374-189.485,58.374
		c-75.703,0-110.992-58.45-192.622-58.45c-81.636,0-116.921,58.45-192.624,58.45c-74.641,0-110.022-56.778-189.242-58.374
		c-73.537,1.596-109,58.374-189.488,58.374c-75.698,0-110.986-58.45-192.621-58.45c-0.152,0-0.297,0.009-0.449,0.009v-0.754
		c-16.611,0-31.275,2.815-44.912,7.21c-38.01,10.991-66.664,33.273-102.344,44.773c-13.664,3.953-28.52,6.467-45.371,6.467
		c-75.698,0-110.986-58.45-192.621-58.45"/>
	<path fill="#0A635A" stroke="#0A635A" stroke-width="1.1461" stroke-miterlimit="10" d="M2291.562,19.583
		c1.17,0,2.291,0.052,3.439,0.073c1.028-0.021,2.035-0.073,3.078-0.073H2291.562z"/>
</g>
</svg>
