<?xml version="1.0" encoding="utf-8"?>
<!-- Generator: Adobe Illustrator 16.0.0, SVG Export Plug-In . SVG Version: 6.00 Build 0)  -->
<!DOCTYPE svg PUBLIC "-//W3C//DTD SVG 1.1//EN" "http://www.w3.org/Graphics/SVG/1.1/DTD/svg11.dtd">
<svg version="1.1" id="Layer_1" xmlns="http://www.w3.org/2000/svg" xmlns:xlink="http://www.w3.org/1999/xlink" x="0px" y="0px"
	 width="3053.891px" height="158.844px" viewBox="0 0 3053.891 158.844" enable-background="new 0 0 3053.891 158.844"
	 xml:space="preserve">
<g>
	<path fill="#0F443E" stroke="#0F443E" stroke-width="1.1461" stroke-miterlimit="10" d="M1526.777,18.242
		c1.147,0,2.252,0.054,3.38,0.076c1.048-0.022,2.075-0.076,3.139-0.076H1526.777z"/>
	<path fill="#0F443E" stroke="#0F443E" stroke-width="1.1461" stroke-miterlimit="10" d="M762.804,18.242
		c1.147,0,2.252,0.054,3.381,0.076c1.047-0.022,2.074-0.076,3.138-0.076H762.804z"/>
	<path fill="#0F443E" stroke="#0F443E" stroke-width="1.1461" stroke-miterlimit="10" d="M0.171,158.844l3053.72-2.434V15.968
		c-75.703,0-110.991,58.451-192.626,58.451c-75.699,0-110.987-58.451-192.622-58.451c-81.636,0-116.919,58.451-192.622,58.451
		c-74.613,0-102.863-54.538-181.83-56.103c-73.574,1.567-109.035,58.376-189.544,58.376c-75.703,0-110.991-58.45-192.622-58.45
		c-81.635,0-116.924,58.45-192.626,58.45c-74.638,0-110.021-56.777-189.241-58.374c-73.539,1.597-108.998,58.374-189.485,58.374
		c-75.703,0-110.991-58.45-192.622-58.45c-81.635,0-116.921,58.45-192.624,58.45c-74.64,0-110.022-56.777-189.241-58.374
		c-73.537,1.597-109.001,58.374-189.488,58.374c-75.699,0-110.987-58.45-192.622-58.45s-116.922,58.45-192.624,58.45v0.131
		C116.567,76.216,81.206,18.401,0,18.401L0.171,158.844z"/>
	<path fill="#0F443E" stroke="#0F443E" stroke-width="1.1461" stroke-miterlimit="10" d="M2290.75,18.242
		c1.171,0,2.292,0.052,3.44,0.074c1.027-0.022,2.035-0.074,3.078-0.074H2290.75z"/>
</g>
</svg>
