<?xml version="1.0" encoding="utf-8"?>
<!-- Generator: Adobe Illustrator 16.0.0, SVG Export Plug-In . SVG Version: 6.00 Build 0)  -->
<!DOCTYPE svg PUBLIC "-//W3C//DTD SVG 1.1//EN" "http://www.w3.org/Graphics/SVG/1.1/DTD/svg11.dtd">
<svg version="1.1" id="Layer_1" xmlns="http://www.w3.org/2000/svg" xmlns:xlink="http://www.w3.org/1999/xlink" x="0px" y="0px"
	 width="167.666px" height="52.335px" viewBox="0 0 167.666 52.335" enable-background="new 0 0 167.666 52.335"
	 xml:space="preserve">
<path fill-rule="evenodd" clip-rule="evenodd" fill="#8C5823" d="M1.206,41.099c0.378-7.564,3.119-14.162,8.017-19.929
	c3.336-3.928,6.597-7.955,11.216-10.438c3.951-2.124,8.145-3.803,12.067-5.975c2.484-1.375,5.217-1.44,7.686-1.339
	c3.517,0.144,6.87,1.224,9.367,4.514c2.79,3.677,3.144,7.616,2.616,11.759c-0.253,1.994-1.021,4.06-2.854,5.449
	c-0.9,0.682-1.775,1.514-2.37,2.46c-1.855,2.952-4.979,4.443-7.45,6.679c-0.849,0.768-0.947,1.149-0.353,2.224
	c1.164,2.107,2.763,3.338,5.064,3.906c0.894,0.221,1.826,0.673,1.755,1.984c-0.067,1.246-0.895,1.499-1.84,1.866
	c-1.411,0.548-2.636,0.849-3.844-0.479c-1.374-1.51-2.881-2.901-4.358-4.316c-0.607-0.582-1.249-1.145-1.942-1.617
	c-0.937-0.637-1.807-0.518-2.566,0.4c-2.379,2.879-4.744,5.806-7.869,7.913c-2.907,1.96-5.762,4.122-9.498,4.325
	c-2.03,0.109-4.055,0.399-6.085,0.428c-3.668,0.056-6.974-3.398-6.885-7.069C1.104,42.929,1.164,42.015,1.206,41.099z
	 M36.409,31.648c0.846-0.42,1.468-0.583,1.893-0.966c2.311-2.084,4.509-4.299,6.867-6.327c3.62-3.115,3.719-6.968,2.448-11.076
	c-0.62-2.004-2.184-3.355-4.14-3.996c-4.262-1.395-8.36-0.577-12.191,1.489c-3.527,1.903-6.859,4.175-10.412,6.026
	C14.456,20.146,9.75,25.125,6.436,31.453c-1.75,3.344-1.619,7.046-1.497,10.705c0.103,3.103,2.671,5.521,5.685,4.86
	c2.34-0.514,4.859-1.273,6.718-2.686c3.759-2.858,7.508-5.907,10.557-9.478c4.023-4.712,8.058-9.59,9.588-15.892
	c0.242-0.995,1.003-1.751,2.006-1.303c0.681,0.303,1.227,1.161,1.557,1.896c0.186,0.413-0.116,1.109-0.326,1.625
	C39.364,24.538,37.968,27.879,36.409,31.648z"/>
<path fill-rule="evenodd" clip-rule="evenodd" fill="#8C5823" d="M139.969,35.586c-3.246,2.052-5.884-0.449-5.965-3.679
	c-0.06-2.443,0.654-4.784,2.424-6.714c1.729-1.886,3.85-2.64,6.286-1.79c0.979,0.341,1.379-0.068,1.706-0.804
	c0.713-1.602,1.332-3.249,2.113-4.814c0.909-1.819,1.989-3.552,2.924-5.358c0.854-1.651,1.734-3.307,2.375-5.045
	c0.491-1.333,0.831-2.736,2.479-2.846c0.659-0.044,1.603,0.373,1.993,0.897c1.01,1.356,0.76,2.757-0.372,4.04
	c-2.484,2.813-3.625,6.337-5.115,9.688c-1.145,2.574-2.812,4.937-3.768,7.568c-0.959,2.642-2.269,5.276-1.801,8.316
	c0.12,0.784-0.527,2.371-0.958,2.42c-1.066,0.124-2.233-0.365-3.313-0.741C140.609,36.597,140.381,36.07,139.969,35.586z
	 M142.295,26.452c-0.08-0.172-0.161-0.346-0.24-0.519c-0.75,0.229-1.81,0.229-2.186,0.737c-0.776,1.046-1.326,2.324-1.681,3.588
	c-0.131,0.468,0.548,1.163,0.858,1.755c0.558-0.364,1.382-0.602,1.624-1.115C141.342,29.478,141.771,27.942,142.295,26.452z"/>
<path fill-rule="evenodd" clip-rule="evenodd" fill="#8C5823" d="M91.921,26.217c3.882,1.803,3.454,3.291,2.723,6.832
	c-0.216,1.049-0.634,2.064-1.033,3.066c-0.704,1.766-2.204,2.35-4.169,2.146c-2.13-0.221-3.667-1.192-4.104-3.185
	c-0.287-1.301-0.045-2.829,0.334-4.148c1.935-6.736,5.089-12.864,9.416-18.396c1.424-1.822,2.652-3.797,4.006-5.676
	c1.075-1.493,2.501-1.208,3.82-0.496c1.262,0.683,1.272,1.783,0.833,3.107c-1.41,4.25-3.194,8.28-6.414,11.493
	c-1.637,1.632-3.416,3.123-5.121,4.688C92.098,25.753,92.059,25.94,91.921,26.217z M90.901,26.95
	c-1.45,2.008-2.359,4.278-2.303,6.863c0.009,0.416,0.458,0.823,0.703,1.234c0.42-0.255,0.903-0.446,1.247-0.781
	c0.482-0.47,1.014-0.988,1.247-1.592c0.278-0.724,0.469-1.6,0.326-2.338C91.904,29.229,91.365,28.185,90.901,26.95z M93.297,21.089
	c3.369-1.636,7.887-9.322,6.929-12.12C97.871,13.088,95.653,16.967,93.297,21.089z"/>
<path fill-rule="evenodd" clip-rule="evenodd" fill="#8C5823" d="M157.718,23.914c1.598-0.103,2.606-0.153,3.612-0.237
	c0.851-0.071,1.708-0.296,2.545-0.235c0.685,0.05,1.345,0.423,2.014,0.652c-0.361,0.662-0.581,1.724-1.11,1.911
	c-1.672,0.593-3.447,1.099-5.204,1.181c-1.707,0.081-2.969,0.319-3.604,2.112c-0.956,2.693-0.84,3.572,0.927,4.975
	c1.781,1.412,2.204,2.492,1.135,3.521c-0.528,0.509-1.516,0.777-2.282,0.758c-2.175-0.056-4.235-0.634-5.21-2.832
	c-0.363-0.817-0.537-1.97-0.253-2.778c1.618-4.595,3.367-9.146,5.163-13.675c0.311-0.784,1.022-1.425,1.607-2.078
	c0.81-0.9,1.873-0.926,2.479,0.003c0.375,0.576,0.269,1.651,0.039,2.396C159.165,20.904,158.499,22.141,157.718,23.914z"/>
<path fill-rule="evenodd" clip-rule="evenodd" fill="#8C5823" d="M77.329,32.075c-2.115,0.153-4.107,2.259-4.599,4.559
	c-0.26,1.215-0.582,2.371-2.225,2.276c-1.623-0.092-2.273-1.675-1.293-3.283c0.532-0.873,1.188-1.674,1.664-2.572
	c0.229-0.433,0.171-1.017,0.244-1.532c-0.689,0.084-1.619-0.083-2.018,0.302c-0.889,0.855-1.602,1.935-2.216,3.02
	c-0.571,1.008-0.987,2.119-1.349,3.225c-0.339,1.04-0.948,1.442-1.924,0.995c-0.989-0.453-1.557-1.174-0.858-2.315
	c0.948-1.548,1.939-3.074,2.796-4.671c0.228-0.423,0.26-1.285-0.013-1.58c-0.725-0.785-0.879-1.679-0.135-2.205
	c0.542-0.383,1.57-0.234,2.337-0.088c0.508,0.097,0.937,0.607,1.401,0.932c3.817-1.727,3.843-1.726,5.423,0.386
	c0.821-0.282,1.659-0.766,2.521-0.815c0.955-0.055,2.354-0.034,2.792,0.539c0.534,0.7,0.337,2.011,0.317,3.056
	c-0.008,0.406-0.372,0.818-0.613,1.205c-0.626,1.001-0.58,1.942,0.284,2.762c0.957,0.909,1.165,1.875,0.11,2.767
	c-0.962,0.814-3.202,0.341-3.793-0.675c-0.976-1.677-0.021-3.186,0.422-4.73C76.748,33.129,77.045,32.673,77.329,32.075z"/>
<path fill-rule="evenodd" clip-rule="evenodd" fill="#8C5823" d="M115.73,34.022c0.469,0.597,1.274,1.171,1.314,1.795
	c0.04,0.636-0.782,1.923-1.037,1.878c-1.066-0.195-2.062-0.781-3.357-1.344c-0.457,0.268-1.263,0.809-2.127,1.231
	c-2.672,1.307-4.114,0.49-4.393-2.445c-0.327-3.446,2.1-7.829,5.38-9.343c1.809-0.835,3.75-1.4,5.666-1.971
	c0.354-0.106,1.132,0.242,1.263,0.563c0.254,0.621,0.445,1.483,0.206,2.053c-1.064,2.539-2.291,5.01-3.459,7.505
	C115.368,33.971,115.549,33.997,115.73,34.022z M115.316,28.294c-2.76,0.195-5.541,3.628-5.262,6.196
	C112.757,33.263,113.576,30.593,115.316,28.294z"/>
<path fill-rule="evenodd" clip-rule="evenodd" fill="#8C5823" d="M128.555,26.779c-1.837-0.114-2.45,0.465-2.946,1.948
	c-0.745,2.223-2.035,4.229-2.25,6.688c-0.045,0.529-1.439,0.941-2.212,1.407c-0.312-0.574-0.917-1.168-0.878-1.717
	c0.092-1.327,0.47-2.635,0.762-3.944c0.283-1.269,0.577-2.538,0.915-3.793c0.233-0.865,0.431-1.772,0.857-2.543
	c0.551-0.996,1.458-0.644,2.409-0.51c0.894,0.126,1.874-0.258,2.799-0.488c1.525-0.379,2.986,0.076,3.544,1.358
	c0.503,1.161,0.536,2.77,0.169,4.001c-0.426,1.429-1.393,2.606-0.89,4.312c0.436,1.478-1.067,2.018-1.983,2.644
	c-0.493,0.336-1.655,0.425-2.005,0.092c-0.724-0.69-1.514-1.573-0.854-2.86c0.769-1.503,1.421-3.069,2.064-4.632
	C128.301,28.146,128.382,27.481,128.555,26.779z"/>
<path fill-rule="evenodd" clip-rule="evenodd" fill="#8C5823" d="M59.377,28.917c-2.914,0.053-5.157,1.659-6.927,3.756
	c-0.91,1.079-1.253,2.636-1.832,3.93c0.445,1.252,0.554,2.375,1.153,3.084c1.724,2.037,5.038,1.875,6.69-0.262
	c0.35-0.453,0.471-1.317,0.289-1.852c-0.096-0.28-1.081-0.352-1.661-0.336c-0.341,0.01-0.649,0.462-1.014,0.558
	c-0.485,0.128-1.1,0.283-1.493,0.089c-0.35-0.172-0.476-0.803-0.7-1.231c0.515-0.177,1.024-0.488,1.546-0.509
	c3.099-0.132,5.11-1.694,5.869-4.651C61.731,29.802,61.141,28.886,59.377,28.917z M54.374,34.403
	c0.123-0.718,0.436-1.335,0.762-1.613c0.762-0.65,0.69-0.9,1.908-1.35c0.335-0.125,0.54-0.178,1.34-0.128
	C57.891,33.664,56.479,33.955,54.374,34.403z"/>
<path fill-rule="evenodd" clip-rule="evenodd" fill="#8C5823" d="M96.034,37.603c0.497-1.737,1.093-3.406,1.426-5.127
	c0.224-1.163,0.2-2.411,0.062-3.594c-0.165-1.413,1.376-2.549,3.115-2.269c1.131,0.182,2.296,0.151,3.443,0.245
	c0.499,0.041,1.106-0.001,1.461,0.266c0.607,0.458,1.521,1.178,1.467,1.699c-0.104,0.992-0.937,1.488-2.159,1.349
	c-1.667-0.188-2.736,0.814-3.368,2.303c-0.643,1.514-1.19,3.078-1.947,4.532C98.407,39.175,98.274,39.158,96.034,37.603z"/>
<path fill-rule="evenodd" clip-rule="evenodd" fill="none" d="M93.297,21.089c2.356-4.123,4.574-8.001,6.929-12.12
	C101.184,11.768,96.666,19.453,93.297,21.089z"/>
</svg>
