<?xml version="1.0" encoding="utf-8"?>
<!-- Generator: Adobe Illustrator 16.0.0, SVG Export Plug-In . SVG Version: 6.00 Build 0)  -->
<!DOCTYPE svg PUBLIC "-//W3C//DTD SVG 1.1//EN" "http://www.w3.org/Graphics/SVG/1.1/DTD/svg11.dtd">
<svg version="1.1" id="Layer_1" xmlns="http://www.w3.org/2000/svg" xmlns:xlink="http://www.w3.org/1999/xlink" x="0px" y="0px"
	 width="288px" height="180.181px" viewBox="0 0 288 180.181" enable-background="new 0 0 288 180.181" xml:space="preserve">
<rect x="-9" y="-9" fill="#FFFFFF" width="306" height="198.181"/>
<g>
	<g>
		<g>
			<path fill="#434345" d="M55.533,136.139c1.092,1.094,1.94,2.366,2.544,3.817c0.602,1.449,0.905,3.006,0.905,4.664
				c0,1.695-0.321,3.289-0.962,4.776c-0.641,1.491-1.517,2.79-2.628,3.902c-1.113,1.111-2.413,1.988-3.901,2.627
				c-1.489,0.641-3.08,0.961-4.777,0.961H26.925v-7.914h3.958v-23.746h-3.958v-7.915h19.788c1.583,0,3.071,0.301,4.467,0.904
				c1.394,0.603,2.608,1.424,3.646,2.459c1.038,1.038,1.857,2.253,2.459,3.647c0.604,1.396,0.904,2.885,0.904,4.467
				c0,1.394-0.235,2.715-0.706,3.957C57.012,133.99,56.36,135.121,55.533,136.139z M38.797,125.227v7.125h7.916
				c0.98,0,1.818-0.349,2.516-1.048c0.697-0.696,1.047-1.534,1.047-2.515c0-0.981-0.35-1.818-1.047-2.516
				c-0.698-0.696-1.536-1.046-2.516-1.046H38.797z M46.712,148.973c1.206,0,2.234-0.424,3.081-1.273
				c0.849-0.846,1.273-1.874,1.273-3.079c0-1.207-0.424-2.235-1.273-3.082c-0.847-0.848-1.875-1.271-3.081-1.271h-7.916v8.705
				H46.712z"/>
			<path fill="#434345" d="M89.793,117.312v11.874h-7.916v-3.959h-7.914v7.914h7.914v7.917h-7.914v7.915h7.914v-3.958h7.916v11.872
				H62.09v-7.914h3.957v-23.746H62.09v-7.915H89.793z"/>
			<path fill="#434345" d="M121.059,117.312v11.874h-7.917v-3.959h-7.913v7.914h7.913v7.917h-7.913v7.915h7.913v-3.958h7.917v11.872
				H93.355v-7.914h3.957v-23.746h-3.957v-7.915H121.059z"/>
		</g>
		<g>
			<g>
				<path fill="#434345" d="M184.275,117.312v11.874h-7.914v-3.959h-3.959v23.746h3.959v7.914h-15.833v-7.914h3.959v-23.746h-3.959
					v3.959h-7.913v-11.874H184.275z"/>
				<path fill="#434345" d="M215.482,117.312v11.874h-7.914v-3.959h-7.916v7.914h7.916v7.917h-7.916v7.915h7.916v-3.958h7.914
					v11.872H187.78v-7.914h3.955v-23.746h-3.955v-7.915H215.482z"/>
				<path fill="#434345" d="M257.831,148.973v7.914h-15.833v-7.914h3.732l-1.188-3.958h-12.211l-1.189,3.958h3.733v7.914h-15.832
					v-7.914h3.845l9.498-31.661h12.099l9.5,31.661H257.831z M242.167,137.1l-3.561-11.873h-0.338l-3.563,11.873H242.167z"/>
			</g>
		</g>
		<g>
			<path fill="#72C6A7" d="M149.957,140.203v-6.206h-3.104v-3.103h-6.206v3.103h-6.204c-0.858,0-1.59-0.302-2.194-0.909
				c-0.606-0.605-0.908-1.336-0.908-2.193c0-0.856,0.302-1.59,0.908-2.195c0.604-0.604,1.336-0.907,2.194-0.907h3.101v-6.208h-3.101
				c-1.3,0-2.512,0.245-3.635,0.731c-1.125,0.489-2.107,1.153-2.948,1.996c-0.843,0.842-1.507,1.832-1.994,2.971
				c-0.487,1.137-0.732,2.343-0.732,3.612c0,1.211,0.207,2.343,0.621,3.391c0.413,1.049,1.004,1.988,1.771,2.814
				c-0.767,0.827-1.358,1.767-1.771,2.814c-0.415,1.051-0.621,2.18-0.621,3.391c0,1.302,0.245,2.513,0.732,3.636
				c0.487,1.122,1.151,2.104,1.994,2.947c0.841,0.843,1.824,1.506,2.948,1.995c1.123,0.488,2.334,0.731,3.635,0.731h3.101
				c1.212,0,2.343-0.207,3.391-0.621c1.048-0.413,1.987-1.005,2.815-1.772c0.826,0.768,1.767,1.359,2.816,1.772
				c1.048,0.414,2.18,0.621,3.391,0.621v-6.205c-0.857,0-1.59-0.303-2.193-0.909c-0.606-0.606-0.91-1.338-0.91-2.195v-3.102H149.957
				z M140.647,143.305c0,0.857-0.303,1.589-0.909,2.195c-0.604,0.606-1.335,0.909-2.194,0.909h-3.101
				c-0.858,0-1.59-0.303-2.194-0.909c-0.606-0.606-0.908-1.338-0.908-2.195c0-0.856,0.302-1.587,0.908-2.193
				c0.604-0.604,1.336-0.908,2.194-0.908h6.204V143.305z"/>
		</g>
	</g>
	<g>
		<path fill="#434345" d="M254.803,117.851h-1.04c-0.138,0-0.263-0.127-0.263-0.265c0-0.137,0.125-0.262,0.263-0.262h2.618
			c0.15,0,0.264,0.125,0.264,0.262c0,0.138-0.113,0.265-0.264,0.265h-1.026v3.119c0,0.15-0.127,0.275-0.289,0.275
			c-0.15,0-0.263-0.125-0.263-0.275V117.851z M257.166,117.586c0-0.162,0.113-0.275,0.276-0.275h0.074
			c0.113,0,0.188,0.05,0.251,0.138l1.354,2.105l1.378-2.105c0.062-0.088,0.138-0.138,0.238-0.138h0.075
			c0.138,0,0.263,0.125,0.263,0.275v3.383c0,0.15-0.125,0.275-0.275,0.275c-0.151,0-0.264-0.125-0.264-0.275v-2.606l-1.164,1.743
			c-0.062,0.1-0.138,0.161-0.251,0.161s-0.188-0.062-0.251-0.161l-1.152-1.743v2.606c0,0.15-0.126,0.275-0.275,0.275
			c-0.151,0-0.276-0.125-0.276-0.275V117.586z"/>
	</g>
	<g>
		<circle fill="#FFE100" cx="130.44" cy="28.703" r="3.579"/>
		<path fill="#434345" d="M130.44,34.113c0.817,0,1.589-0.187,2.284-0.512c1.418,1.25,2.835,2.846,3.823,4.772
			c1.127-0.293,2.286-0.507,3.467-0.648c-1.123-2.579-2.873-4.767-4.783-6.513c0.395-0.75,0.62-1.603,0.62-2.508
			c0-2.983-2.427-5.41-5.411-5.41c-2.982,0-5.409,2.427-5.409,5.41S127.458,34.113,130.44,34.113z M130.44,25.124
			c1.978,0,3.58,1.603,3.58,3.58c0,1.976-1.603,3.578-3.58,3.578c-1.977,0-3.578-1.602-3.578-3.578
			C126.862,26.727,128.463,25.124,130.44,25.124z"/>
		<path fill="#FFE100" d="M168.198,64.884c0-1.255-0.095-2.488-0.279-3.692h-47.837c-0.185,1.204-0.281,2.438-0.281,3.692v3.166
			h48.397V64.884z"/>
		<rect x="119.801" y="68.05" fill="#434345" width="48.397" height="6.866"/>
		<path fill="#FFE100" d="M168.198,78.081v-3.165h-48.397v3.165c0,1.256,0.096,2.49,0.281,3.694h47.837
			C168.104,80.57,168.198,79.337,168.198,78.081z"/>
		<path fill="#434345" d="M167.919,81.774h-47.837c0.371,2.426,1.104,4.731,2.139,6.862h43.559
			C166.814,86.506,167.547,84.2,167.919,81.774z"/>
		<path fill="#FFE100" d="M160.788,95.501c2.04-1.967,3.739-4.287,4.991-6.865h-43.559c1.252,2.578,2.951,4.897,4.992,6.865H160.788
			z"/>
		<path fill="#434345" d="M158.191,97.677c0.916-0.665,1.783-1.393,2.597-2.176h-33.576c4.352,4.195,10.267,6.778,16.788,6.778
			c2.139,0,4.21-0.28,6.185-0.801c2.261,2.467,6.106,5.208,12.192,5.599C162.378,107.078,157.093,103.13,158.191,97.677z"/>
		<path fill="#434345" d="M165.779,54.329c-1.25-2.578-2.949-4.896-4.989-6.864c-4.353-4.195-10.267-6.78-16.79-6.78
			c-6.522,0-12.438,2.585-16.789,6.78c-2.041,1.968-3.739,4.286-4.991,6.864c-1.035,2.131-1.768,4.438-2.139,6.862h47.837
			C167.547,58.767,166.814,56.46,165.779,54.329z"/>
		<circle fill="#FFE100" cx="157.56" cy="28.703" r="3.579"/>
		<path fill="#434345" d="M155.275,33.601c0.696,0.325,1.469,0.512,2.284,0.512c2.981,0,5.409-2.426,5.409-5.409
			s-2.428-5.41-5.409-5.41c-2.983,0-5.411,2.427-5.411,5.41c0,0.905,0.228,1.757,0.622,2.508c-1.911,1.747-3.66,3.934-4.784,6.513
			c1.181,0.141,2.34,0.355,3.467,0.648C152.441,36.446,153.857,34.851,155.275,33.601z M157.56,25.124
			c1.977,0,3.579,1.603,3.579,3.58c0,1.976-1.603,3.578-3.579,3.578c-1.978,0-3.58-1.602-3.58-3.578
			C153.979,26.727,155.582,25.124,157.56,25.124z"/>
		<path fill="#72C6A7" d="M118.089,88.872c-1.175-2.974-1.827-6.212-1.827-9.604V71.18c-8.162,4.445-13.287,15.285-13.287,15.285
			c2.948-12.305,9.042-18.371,13.287-21.219v-1.55c0-4.777,1.287-9.251,3.523-13.107c-22.398,8.836-20.732,43.317-20.732,43.317
			C106.631,92.571,112.899,90.821,118.089,88.872z"/>
		<path fill="#72C6A7" d="M168.216,50.588c2.235,3.856,3.523,8.331,3.523,13.107v1.549c4.244,2.848,10.339,8.915,13.287,21.22
			c0,0-5.125-10.84-13.287-15.285v8.089c0,3.392-0.653,6.63-1.827,9.604c5.188,1.949,11.457,3.699,19.035,5.034
			C188.947,93.906,190.612,59.424,168.216,50.588z"/>
	</g>
</g>
</svg>
