<svg xmlns="http://www.w3.org/2000/svg" viewBox="0 0 699.3 443.71">
  <title>titleAsset 12</title>
  <g>
    <g>
      <path d="M401.25,436.21c-15.87,0-29.16-2.07-40.49-6.34a44.55,44.55,0,0,1-18.16,3.79H325.9a76.31,76.31,0,0,1-8.2,1.65,98.32,98.32,0,0,1-13.95.9c-27,0-49-8.48-65.28-25.22-16-16.45-24.12-38.55-24.12-65.68,0-16.49,3.75-31.62,11.16-45a82.14,82.14,0,0,1,34-33.08A89.8,89.8,0,0,1,274.66,261l-8.41-23.45a38.33,38.33,0,0,1-10.69-26.65v-1.2a38.87,38.87,0,0,1,2.63-14.13c-13.7-1.7-25.67-6-35.76-12.89a42.51,42.51,0,0,1-30.13,11.92H161.85a43.82,43.82,0,0,1-13-1.92,44.87,44.87,0,0,1-13.14,1.92h-16.7a73.87,73.87,0,0,1-8.2,1.64,98.45,98.45,0,0,1-13.95.91c-27,0-49-8.49-65.28-25.23C15.62,155.43,7.5,133.33,7.5,106.2c0-16.5,3.75-31.63,11.16-45a82.14,82.14,0,0,1,34-33.08C66.26,20.92,82,17.25,99.3,17.25a90.11,90.11,0,0,1,34.27,6.46,72.38,72.38,0,0,1,27.79,19.64,69.43,69.43,0,0,1,16.42,1.94,70.23,70.23,0,0,1,23.07-3.74,66.68,66.68,0,0,1,32,7.85c11.3-5.21,24.44-7.85,39.14-7.85,17.84,0,33.31,3.87,46.05,11.51,12.74-7.64,28.2-11.51,46.05-11.51a100.84,100.84,0,0,1,27.59,3.61,40.36,40.36,0,0,1,12-1.81h23.4a107.41,107.41,0,0,1,17.85,1.29,40.4,40.4,0,0,1,10.2-1.29h23.79a50.12,50.12,0,0,1,17.21-24c10.19-7.86,22.64-11.85,37-11.85S559.76,11.44,570,19.2a50.13,50.13,0,0,1,17.48,24.15H588a66.49,66.49,0,0,1,17.53,2.24,66.33,66.33,0,0,1,23.12-4c22.88,0,36.88,10.39,44.58,19.1,10,11.36,15.12,25.87,15.12,43.15v48.45a42.24,42.24,0,0,1-12.11,30.19c-5.53,5.52-15.3,12.11-30.49,12.11h-27a48.59,48.59,0,0,1-7.8-.62,48.69,48.69,0,0,1-7.8.62h-27a46.11,46.11,0,0,1-13.62-2,64.36,64.36,0,0,1-11,2.82A56.92,56.92,0,0,1,558.66,224v32.3c0,.89,0,1.78-.08,2.66h56.87c22.35,0,40.59,6.28,54.23,18.67,10.1,9.17,22.12,26,22.12,54.08,0,20.79-7.32,38.87-21.15,52.28a70.18,70.18,0,0,1-29.2,16.81,41.47,41.47,0,0,1-9.32,18.89c-4.58,5.24-14.84,14-32.13,14H569.7a46.28,46.28,0,0,1-8.76-.82,45.26,45.26,0,0,1-8.64.82H514.65a48.75,48.75,0,0,1-8.62-.75,46,46,0,0,1-8.33.75H458.55a45.31,45.31,0,0,1-17.7-3.46C429.47,434.24,416.47,436.21,401.25,436.21Z" style="fill: #f2673d"/>
      <path d="M533.1,15c12.58,0,23.46,3.42,32.33,10.17a42.52,42.52,0,0,1,16.26,25.68H588a57.58,57.58,0,0,1,17.87,2.67,58.21,58.21,0,0,1,22.78-4.47c20.09,0,32.28,9,39,16.57,8.78,9.95,13.23,22.79,13.23,38.18v48.45a34.77,34.77,0,0,1-9.92,24.89c-4.52,4.52-12.56,9.91-25.18,9.91h-27a40.05,40.05,0,0,1-7.8-.74,40.2,40.2,0,0,1-7.8.74h-27a37.74,37.74,0,0,1-13.74-2.46,60.44,60.44,0,0,1-23,4.26c-.9,0-1.77,0-2.64-.07a42.62,42.62,0,0,1,3.07,3.09C545,197.73,551.16,208,551.16,224v32.3a34.85,34.85,0,0,1-1.86,11.32,33,33,0,0,1,8.7-1.16h57.45c20.43,0,37,5.63,49.19,16.72h0c9,8.14,19.65,23.18,19.65,48.52,0,18.72-6.53,34.93-18.87,46.9a62.75,62.75,0,0,1-30.65,16.15,34.64,34.64,0,0,1-8.29,20c-3.75,4.28-12.16,11.45-26.49,11.45H569.7a38.69,38.69,0,0,1-8.77-1,38,38,0,0,1-8.63,1H514.65a41.11,41.11,0,0,1-8.64-.89,38.76,38.76,0,0,1-8.31.89H458.55a37,37,0,0,1-17.38-4.1c-11.16,4.46-24.34,6.65-39.92,6.65-16.33,0-29.78-2.32-40.82-7.06a36.21,36.21,0,0,1-17.83,4.51H324.93a68.43,68.43,0,0,1-8.29,1.72,91,91,0,0,1-12.89.83c-24.93,0-45.08-7.72-59.9-22.95-14.6-15-22-35.34-22-60.45,0-15.2,3.44-29.11,10.22-41.33A74.64,74.64,0,0,1,263,273.89a83.42,83.42,0,0,1,21.54-7.79c-.22-.53-.43-1.08-.64-1.64l-.07-.18-11.08-30.89a31.11,31.11,0,0,1-9.68-22.54v-1.2a30.87,30.87,0,0,1,7.9-20.82c-20.34-.17-37-5.71-49.65-16.48-6.21,9-16.67,14.7-29,14.7H161.85a36.19,36.19,0,0,1-12.94-2.34,37.33,37.33,0,0,1-13.16,2.34H118.08a70.4,70.4,0,0,1-8.29,1.72,91,91,0,0,1-12.89.83c-24.93,0-45.08-7.72-59.9-23-14.6-15-22-35.33-22-60.44C15,91,18.44,77.09,25.22,64.87a74.72,74.72,0,0,1,30.92-30.1c12.54-6.65,27.06-10,43.16-10a82.88,82.88,0,0,1,31.44,5.9,64.75,64.75,0,0,1,26.49,19.46c.19.24.37.49.56.74h3.31a60.07,60.07,0,0,1,17,2.31,61.7,61.7,0,0,1,22.71-4.11,58.11,58.11,0,0,1,31.66,8.87c11-5.89,24.21-8.87,39.44-8.87,18.4,0,33.84,4.36,46.05,13,12.21-8.59,27.65-13,46.05-13a91.6,91.6,0,0,1,27.76,4,32.7,32.7,0,0,1,11.84-2.19h23.4a95.47,95.47,0,0,1,18.22,1.48,33,33,0,0,1,9.83-1.48h29.55a42.54,42.54,0,0,1,16-25.56C509.53,18.46,520.44,15,533.1,15m0-15c-16.05,0-30,4.51-41.58,13.42a57.8,57.8,0,0,0-17.77,22.43H455.1A47.79,47.79,0,0,0,444.6,37a119.39,119.39,0,0,0-17.55-1.15h-23.4a48,48,0,0,0-12,1.52,110.35,110.35,0,0,0-27.55-3.32c-17.49,0-32.94,3.5-46.05,10.41C304.88,37.55,289.44,34.05,272,34.05c-14.37,0-27.41,2.37-38.89,7.06a74.89,74.89,0,0,0-32.21-7.06,77.94,77.94,0,0,0-23.43,3.47,76.05,76.05,0,0,0-12.67-1.59,80.31,80.31,0,0,0-28.34-19.17,97.78,97.78,0,0,0-37.11-7c-18.58,0-35.46,4-50.19,11.77a89.5,89.5,0,0,0-37,36.07C4.07,72.06,0,88.42,0,106.2c0,29.15,8.83,53,26.25,70.91C44,195.35,67.77,204.6,96.9,204.6a105.65,105.65,0,0,0,15-1,81.94,81.94,0,0,0,8.07-1.57h15.78a53,53,0,0,0,13.13-1.63,51.86,51.86,0,0,0,13,1.63H192.3a50.39,50.39,0,0,0,30.83-10.12,85.87,85.87,0,0,0,25.63,9.63,47.25,47.25,0,0,0-.7,8.09v1.2a45.76,45.76,0,0,0,11.64,30.61l5.37,15a95.57,95.57,0,0,0-9.11,4.23,89.38,89.38,0,0,0-37,36.07c-8,14.47-12.1,30.82-12.1,48.6,0,29.16,8.83,53,26.25,70.91,17.75,18.24,41.52,27.49,70.65,27.49a107.22,107.22,0,0,0,15-1c2.69-.39,5.34-.91,8.07-1.58H342.6a52.43,52.43,0,0,0,18.34-3.26c11.54,3.91,24.8,5.81,40.31,5.81,14.93,0,27.9-1.81,39.43-5.54a53.2,53.2,0,0,0,17.87,3H497.7a53.93,53.93,0,0,0,8.35-.64,56.71,56.71,0,0,0,8.6.64H552.3a52.92,52.92,0,0,0,8.64-.7,54.3,54.3,0,0,0,8.76.7H600c20.25,0,32.36-10.39,37.78-16.58a48.92,48.92,0,0,0,9.91-18,77.26,77.26,0,0,0,28.18-17.29c15.33-14.86,23.43-34.8,23.43-57.67,0-30.83-13.36-49.44-24.56-59.62l0,0c-15-13.65-35-20.59-59.25-20.59H566.16V224a67.06,67.06,0,0,0-4-23.37l.56-.18a53.88,53.88,0,0,0,13.43,1.65h27a57.41,57.41,0,0,0,7.8-.53,57.19,57.19,0,0,0,7.8.53h27c17.76,0,29.27-7.78,35.79-14.31a49.67,49.67,0,0,0,14.31-35.49V103.8c0-19.16-5.72-35.35-17-48.11-8.74-9.87-24.54-21.64-50.21-21.64a74,74,0,0,0-23.47,3.72A73.56,73.56,0,0,0,592.64,36a58,58,0,0,0-18.12-22.75C563,4.45,549,0,533.1,0Z" style="fill: #e54f2c"/>
    </g>
    <g>
      <path d="M113.68,158a48.17,48.17,0,0,1-8.17,2,61.83,61.83,0,0,1-8.63.53q-24.9,0-38.4-13.88T45,107.11Q45,92,51.43,80.33A45,45,0,0,1,70.18,62.18q12.3-6.52,29.1-6.52a52.72,52.72,0,0,1,20.1,3.67,34.89,34.89,0,0,1,14.4,10.43,24,24,0,0,1,5.4,15.45q0,10-7.2,16.12t-19,6.08a30.54,30.54,0,0,1-13.12-2.78,23.41,23.41,0,0,1-9.45-7.8,19.48,19.48,0,0,1-3.53-11.47q0-8.1,5.55-12.9t15-4.8a2.72,2.72,0,0,0,.9-2,2.12,2.12,0,0,0-1-1.88,4.91,4.91,0,0,0-2.7-.67A22.78,22.78,0,0,0,93.36,66,22.29,22.29,0,0,0,85,74a21.53,21.53,0,0,0-3.15,11.55A25,25,0,0,0,84.36,97a30.51,30.51,0,0,0,8.17,9.53,6.46,6.46,0,0,1,2,2.32,8,8,0,0,1,.6,3.38v36.6q0,4,2.7,4.05t2.7-4.05V116.26a5.85,5.85,0,0,1,1.13-4.05,5.07,5.07,0,0,1,3.82-1.2h42q1.8,0,1.8,1.5v1.8a1.86,1.86,0,0,1-.22,1,3.83,3.83,0,0,1-1.28,1q-4.35,2.4-5.7,4.65t-1.35,7v24.75c0,1.9-.37,3.25-1.12,4a5.09,5.09,0,0,1-3.83,1.2Z" style="fill: #ffbb9d"/>
      <path d="M161.08,81.76q12.9,0,17.55,7.65a28.18,28.18,0,0,1,9.75-7.13A31.24,31.24,0,0,1,200.83,80q10.95,0,18,6a19.2,19.2,0,0,1,7,15.3,15.88,15.88,0,0,1-5.7,12.67q-5.7,4.88-14.7,4.88-8.85,0-14.47-4.5a14,14,0,0,1-5.63-11.4,12.5,12.5,0,0,1,4.05-9.6,14.63,14.63,0,0,1,10.35-3.75,2.89,2.89,0,0,0,.45-1.5q0-2.1-3.15-2.1a15.23,15.23,0,0,0-11.4,5,16.87,16.87,0,0,0-4.8,12.08,17.33,17.33,0,0,0,3.38,10.57,22.84,22.84,0,0,0,9.67,7.28,5.8,5.8,0,0,1,2.78,2,7.92,7.92,0,0,1,.67,3.83v26.4q0,4.8-5.1,4.8H161.83q-4.65,0-4.65-4.8V100.21q0-5.25-1.5-8A14.39,14.39,0,0,0,150.13,87a3.75,3.75,0,0,1-1.27-1,1.86,1.86,0,0,1-.23-1v-1.8q0-1.5,1.8-1.5Z" style="fill: #ffbb9d"/>
      <path d="M271.93,159.76q-21.15,0-32.17-10.2t-11-29.7q0-19.5,11-29.7T271.93,80q21.15,0,32.18,10.2t11,29.7q0,19.5-11,29.7T271.93,159.76Zm0-6.9q2.7,0,2.7-4.05V90.91q0-4.05-2.7-4t-2.7,4v57.9Q269.23,152.86,271.93,152.86Z" style="fill: #ffbb9d"/>
      <path d="M364,159.76q-21.15,0-32.17-10.2t-11-29.7q0-19.5,11-29.7T364,80q21.15,0,32.18,10.2t11,29.7q0,19.5-11,29.7T364,159.76Zm0-6.9q2.7,0,2.7-4.05V90.91q0-4.05-2.7-4t-2.7,4v57.9Q361.33,152.86,364,152.86Z" style="fill: #ffbb9d"/>
      <path d="M410.53,94.81a11.54,11.54,0,0,0-2.47-4.2,24.44,24.44,0,0,0-4.73-3.6q-1.5-.9-1.5-2v-1.8q0-1.5,1.8-1.5H427q10.2,0,15.08,1.57a14.61,14.61,0,0,1,7.65,5.48,45.05,45.05,0,0,1,5.32,11.55l14.4,43.5a2.45,2.45,0,0,0,1.8.75q2.25,0,2.25-2.55a19.28,19.28,0,0,0-1.2-4.95l-13.5-41.25a48,48,0,0,0-1.8-5,15.27,15.27,0,0,0-1.65-2.85c-.9-1.1-1.47-1.83-1.72-2.18a2.12,2.12,0,0,1-.38-1.27V83.26q0-1.5,1.8-1.5h42.45q5.4,0,5.4,3.9,0,6.6-19.8,56.25-3.3,8.25-5.32,11.17a10.19,10.19,0,0,1-4.5,3.9,21.41,21.41,0,0,1-7.43,1h-22.5q-5.25,0-7.95-1.73T431.08,150Z" style="fill: #ffbb9d"/>
      <path d="M548.23,81.76c1.9,0,3.23.37,4,1.12a5.06,5.06,0,0,1,1.12,3.68v48.75a8.8,8.8,0,0,0,.45,3.45,1.55,1.55,0,0,0,1.5.9,1.92,1.92,0,0,0,1.88-1,20.93,20.93,0,0,0,1.12-4.8,11.5,11.5,0,0,1,.6-3.08,1.26,1.26,0,0,1,1.2-.52h2.55a1.33,1.33,0,0,1,1.28,1,12,12,0,0,1,.37,3.6q0,12-6.45,18.45t-18.45,6.45q-11.55,0-17.77-6.53t-6.23-18.67V100.21q0-5.25-1.5-8A14.39,14.39,0,0,0,508.33,87a3.75,3.75,0,0,1-1.27-1,1.86,1.86,0,0,1-.23-1v-1.8q0-1.5,1.8-1.5Zm-34.5-21A13,13,0,0,1,519,50q5.25-4.05,14.1-4.05T547.26,50a12.89,12.89,0,0,1,5.32,10.8,12.74,12.74,0,0,1-5.32,10.65q-5.32,4.05-14.18,4t-14.1-4A12.74,12.74,0,0,1,513.73,60.76Z" style="fill: #ffbb9d"/>
      <path d="M588,81.76q7.35,0,11.77,2.62a13.56,13.56,0,0,1,6.08,8.18,23.45,23.45,0,0,1,9.38-9.38A27.57,27.57,0,0,1,628.63,80q10.8,0,16.5,6.45t5.7,18.3v48.45a5,5,0,0,1-1.12,3.67c-.75.75-2.08,1.13-4,1.13h-27c-1.9,0-3.23-.38-4-1.13a5,5,0,0,1-1.12-3.67v-51.6a4.54,4.54,0,0,0-.75-2.7,2.43,2.43,0,0,0-2.1-1,2.77,2.77,0,0,0-2.55,1.2v54.15a5,5,0,0,1-1.12,3.67c-.75.75-2.08,1.13-4,1.13h-27c-1.9,0-3.22-.38-4-1.13a5,5,0,0,1-1.13-3.67V100.21q0-5.25-1.5-8A14.39,14.39,0,0,0,564,87a3.75,3.75,0,0,1-1.27-1,1.77,1.77,0,0,1-.23-1v-1.8q0-1.5,1.8-1.5Z" style="fill: #ffbb9d"/>
    </g>
    <g>
      <path d="M320.53,397.07a47.33,47.33,0,0,1-8.17,2,62,62,0,0,1-8.63.52q-24.9,0-38.4-13.87t-13.5-39.53q0-15.15,6.45-26.77A45,45,0,0,1,277,301.3q12.3-6.53,29.1-6.53a52.72,52.72,0,0,1,20.1,3.68,34.87,34.87,0,0,1,14.4,10.42,24,24,0,0,1,5.4,15.45q0,10.05-7.2,16.13t-19.05,6.07a30.54,30.54,0,0,1-13.12-2.77,23.41,23.41,0,0,1-9.45-7.8,19.51,19.51,0,0,1-3.53-11.48q0-8.1,5.55-12.9t15-4.8a2.72,2.72,0,0,0,.9-1.95,2.11,2.11,0,0,0-1.05-1.87,4.91,4.91,0,0,0-2.7-.68,22.78,22.78,0,0,0-11.17,2.85,22.29,22.29,0,0,0-8.33,7.95,21.53,21.53,0,0,0-3.15,11.55,25.07,25.07,0,0,0,2.48,11.48,30.49,30.49,0,0,0,8.17,9.52,6.49,6.49,0,0,1,1.95,2.33,8,8,0,0,1,.6,3.37v36.6q0,4.05,2.7,4.05t2.7-4.05V355.37a5.85,5.85,0,0,1,1.13-4.05,5.07,5.07,0,0,1,3.82-1.2h42q1.8,0,1.8,1.5v1.8a1.9,1.9,0,0,1-.22,1,3.84,3.84,0,0,1-1.28,1q-4.35,2.4-5.7,4.65t-1.35,7.05v24.75c0,1.9-.37,3.25-1.12,4.05a5.09,5.09,0,0,1-3.83,1.2Z" style="fill: #ffbb9d"/>
      <path d="M449.38,368.57q0,15-12.45,23t-35.7,8q-21.6,0-32.77-6.52t-11.18-19a15.9,15.9,0,0,1,5.55-12.52q5.55-4.87,14.25-4.88,10.05,0,16,4.43A14.1,14.1,0,0,1,399,373.07a11.17,11.17,0,0,1-3.9,9q-3.9,3.3-10.95,3.6a2.72,2.72,0,0,0-.9,1.95,1.86,1.86,0,0,0,1,1.65,4.63,4.63,0,0,0,2.47.6,17.43,17.43,0,0,0,12.53-4.8,15.9,15.9,0,0,0,5-12,17.89,17.89,0,0,0-2.4-9.67,21,21,0,0,0-7.72-6.83,76.81,76.81,0,0,0-14.48-5.85q-10.35-3.15-15.6-9.45a23.33,23.33,0,0,1-5.25-15.45,24.73,24.73,0,0,1,5.63-16q5.63-7,16.2-11t24.67-4.05q19.8,0,31,6.75t11.17,18.75a15.65,15.65,0,0,1-5.77,12.53q-5.78,4.88-14.93,4.87-9.45,0-15.22-4.5a14.3,14.3,0,0,1-5.78-11.85,11.17,11.17,0,0,1,3.9-9q3.9-3.3,10.95-3.6a2.72,2.72,0,0,0,.9-2,1.85,1.85,0,0,0-1-1.65,4.67,4.67,0,0,0-2.48-.6,18,18,0,0,0-8.77,2.18,17.1,17.1,0,0,0-6.38,6,15.87,15.87,0,0,0-2.4,8.62q0,8.25,5.55,13.28t19.05,8.77q12.45,3.45,18.38,9.6T449.38,368.57Z" style="fill: #ffbb9d"/>
      <path d="M502.63,371.72h-5.55l4.35,16.8a22.79,22.79,0,0,1,.9,4.8q0,3.75-4.65,3.75H458.53a6.59,6.59,0,0,1-4.57-1.42,5.1,5.1,0,0,1-1.58-4q0-3.45,6.9-21t23.4-55.95a9.69,9.69,0,0,0,.9-3.75,7.33,7.33,0,0,0-1.27-4.35,17.77,17.77,0,0,0-4.73-4.05q-1.5-.9-1.5-1.95v-1.8q0-1.5,1.8-1.5h34.8a14.8,14.8,0,0,1,8,1.95,12.28,12.28,0,0,1,4.72,6.3l29,76.2q2.85,7.35,2.85,10.5,0,4.8-5,4.8H514.63c-2.1,0-3.62-.45-4.57-1.35s-1.78-2.7-2.48-5.4Zm-7.35-7.05h5.55l-10.5-40.35a2.64,2.64,0,0,0-1.95-.75,2.81,2.81,0,0,0-1.95.68,2.21,2.21,0,0,0-.75,1.72,7,7,0,0,0,.15,1.35q.15.75.45,1.8Z" style="fill: #ffbb9d"/>
      <path d="M615.43,297.32q19.2,0,29,8.93t9.82,26.32q0,15.9-9.75,25.35T618,367.37a43.33,43.33,0,0,1-13.05-1.8v26.25a6.15,6.15,0,0,1-1,4.05q-1.05,1.2-3.9,1.2h-30.3q-2.85,0-3.9-1.2a6.15,6.15,0,0,1-1-4.05v-77.4a18.06,18.06,0,0,0-.6-5.47,7.94,7.94,0,0,0-2.1-3.15,41,41,0,0,0-5.1-3.83,1.47,1.47,0,0,1-.75-1.35v-1.8q0-1.5,1.8-1.5Zm-10.5,59.85a3.33,3.33,0,0,0,2.85,1.2,2.43,2.43,0,0,0,2.1-1.05,4.54,4.54,0,0,0,.75-2.7V308.27a4.54,4.54,0,0,0-.75-2.7,2.43,2.43,0,0,0-2.1-1.05,3.33,3.33,0,0,0-2.85,1.2Z" style="fill: #ffbb9d"/>
    </g>
    <g>
      <path d="M356,218.65a14.25,14.25,0,0,0-2.5-5.2,5.13,5.13,0,0,1-.9-1.1,2,2,0,0,1-.19-.9v-.9c0-.66.39-1,1.19-1H380q3.58,0,3.59,2.6,0,3.6-3.45,15t-7.84,22.45a42,42,0,0,1-3.46,7.4,6.67,6.67,0,0,1-3,2.65,14.07,14.07,0,0,1-5,.65h-11.7a9.86,9.86,0,0,1-5.35-1.3,8.21,8.21,0,0,1-3.15-4.2,8.38,8.38,0,0,1-3.19,4.15,10.07,10.07,0,0,1-5.5,1.35h-11.7a9.86,9.86,0,0,1-5.3-1.15,8,8,0,0,1-2.91-4.15l-13.2-36.8a7.77,7.77,0,0,0-1.64-2.8,16.32,16.32,0,0,0-3.16-2.4c-.66-.4-1-.83-1-1.3v-1.2c0-.66.41-1,1.21-1h12.59q6.81,0,10.05,1a9.79,9.79,0,0,1,5.11,3.65,30.16,30.16,0,0,1,3.54,7.7l9.6,29a1.63,1.63,0,0,0,1.2.5c1,0,1.5-.56,1.5-1.7a12.57,12.57,0,0,0-.8-3.3L328,218.65a14.76,14.76,0,0,0-2.5-5.2,5,5,0,0,1-.91-1.1,2,2,0,0,1-.2-.9v-.9c0-.66.41-1,1.2-1H335a35.31,35.31,0,0,1,10.05,1,9.74,9.74,0,0,1,5.09,3.65,29.8,29.8,0,0,1,3.55,7.7l9.61,29a1.6,1.6,0,0,0,1.2.5c1,0,1.5-.56,1.5-1.7a12.72,12.72,0,0,0-.81-3.3Z" style="fill: #ffbb9d"/>
      <path d="M413.74,209.55a3.7,3.7,0,0,1,2.65.75,3.37,3.37,0,0,1,.75,2.45v32.5a5.84,5.84,0,0,0,.3,2.3,1,1,0,0,0,1,.6,1.27,1.27,0,0,0,1.25-.7,13.06,13.06,0,0,0,.75-3.2,8.2,8.2,0,0,1,.4-2.05.86.86,0,0,1,.8-.35h1.7a.89.89,0,0,1,.85.7,7.9,7.9,0,0,1,.25,2.4q0,8-4.3,12.3t-12.3,4.3q-7.69,0-11.85-4.35t-4.15-12.45v-22.9a11.47,11.47,0,0,0-1-5.35,9.6,9.6,0,0,0-3.7-3.45,2.48,2.48,0,0,1-.85-.65,1.23,1.23,0,0,1-.15-.65v-1.2c0-.66.4-1,1.2-1Zm-23-14a8.64,8.64,0,0,1,3.5-7.2q3.51-2.7,9.4-2.7t9.45,2.7a8.58,8.58,0,0,1,3.55,7.2,8.48,8.48,0,0,1-3.55,7.1q-3.54,2.7-9.45,2.7t-9.4-2.65A8.5,8.5,0,0,1,390.74,195.55Z" style="fill: #ffbb9d"/>
      <path d="M436.54,198.75a4.34,4.34,0,0,1,1.25-2.55,4.2,4.2,0,0,1,2.55-.65h10.9a3.7,3.7,0,0,1,2.65.75,3.37,3.37,0,0,1,.75,2.45v10.8h9.9c.8,0,1.2.34,1.2,1v1.8c0,.67-.4,1-1.2,1h-9.9v31.4a4.68,4.68,0,0,0,.55,2.7,2.48,2.48,0,0,0,2.05.7,2,2,0,0,0,1.75-.8,8.41,8.41,0,0,0,.95-3.1,6.73,6.73,0,0,1,.45-2,.94.94,0,0,1,.85-.4h1.6a.89.89,0,0,1,.85.7,7.9,7.9,0,0,1,.25,2.4q0,8-4.4,12.3t-12.5,4.3q-8.4,0-13.05-4.6t-4.65-12.9v-30.7h-5.9c-.8,0-1.2-.33-1.2-1v-1.8c0-.66.4-1,1.2-1h.4a19.45,19.45,0,0,0,6.9-.9,6.87,6.87,0,0,0,3.45-3.1A26.86,26.86,0,0,0,436.54,198.75Z" style="fill: #ffbb9d"/>
      <path d="M467.94,200.75a11.47,11.47,0,0,0-1-5.35,9.6,9.6,0,0,0-3.7-3.45,2.48,2.48,0,0,1-.85-.65,1.23,1.23,0,0,1-.15-.65v-1.2c0-.66.4-1,1.2-1h25.9a3.7,3.7,0,0,1,2.65.75,3.37,3.37,0,0,1,.75,2.45v22.8q4.9-6.09,13.6-6.1,7.2,0,11,4.3t3.8,12.2v32.3a3.36,3.36,0,0,1-.75,2.45,3.7,3.7,0,0,1-2.65.75h-18a3.71,3.71,0,0,1-2.65-.75,3.36,3.36,0,0,1-.75-2.45v-34.4a3,3,0,0,0-.5-1.8,1.63,1.63,0,0,0-1.4-.7,1.86,1.86,0,0,0-1.7.8v36.1a3.36,3.36,0,0,1-.75,2.45,3.7,3.7,0,0,1-2.65.75h-18a3.71,3.71,0,0,1-2.65-.75,3.36,3.36,0,0,1-.75-2.45Z" style="fill: #ffbb9d"/>
    </g>
  </g>
</svg>
