<?xml version="1.0" encoding="utf-8"?>
<!-- Generator: Adobe Illustrator 16.0.0, SVG Export Plug-In . SVG Version: 6.00 Build 0)  -->
<!DOCTYPE svg PUBLIC "-//W3C//DTD SVG 1.1//EN" "http://www.w3.org/Graphics/SVG/1.1/DTD/svg11.dtd">
<svg version="1.1"
	 id="svg2" xmlns:cc="http://creativecommons.org/ns#" xmlns:rdf="http://www.w3.org/1999/02/22-rdf-syntax-ns#" xmlns:svg="http://www.w3.org/2000/svg" xmlns:dc="http://purl.org/dc/elements/1.1/"
	 xmlns="http://www.w3.org/2000/svg" xmlns:xlink="http://www.w3.org/1999/xlink" x="0px" y="0px" width="294.504px"
	 height="485.223px" viewBox="544.575 -1.463 294.504 485.223" enable-background="new 544.575 -1.463 294.504 485.223"
	 xml:space="preserve">
<path id="path2985_1_" fill="#D6459B" d="M839.072,241.965c-0.146-9.836-4.287-19.233-11.551-26.208L613.535,10.067
	c-15.263-15.04-40.4-15.416-56.148-0.838c-15.746,14.578-16.139,38.588-0.877,53.629c0.229,0.225,0.459,0.447,0.693,0.666
	L743.297,242.37l-186.7,177.804c-15.72,14.604-16.067,38.615-0.776,53.629c15.29,15.016,40.429,15.348,56.148,0.742
	c0.242-0.225,0.48-0.451,0.717-0.684L827.4,269.33C835.004,262.09,839.215,252.219,839.072,241.965z"/>
</svg>
