<?xml version="1.0" encoding="utf-8"?>
<!-- Generator: Adobe Illustrator 16.0.0, SVG Export Plug-In . SVG Version: 6.00 Build 0)  -->
<!DOCTYPE svg PUBLIC "-//W3C//DTD SVG 1.1//EN" "http://www.w3.org/Graphics/SVG/1.1/DTD/svg11.dtd">
<svg version="1.1" id="Layer_1" xmlns="http://www.w3.org/2000/svg" xmlns:xlink="http://www.w3.org/1999/xlink" x="0px" y="0px"
	 width="425.62px" height="869.326px" viewBox="0 0 425.62 869.326" enable-background="new 0 0 425.62 869.326"
	 xml:space="preserve">
<path fill="none" d="M365.727,3.003H60.826c-28.769,0-52.175,23.406-52.175,52.18v758.555c0,28.775,23.406,52.182,52.175,52.182
	h304.901c28.773,0,52.183-23.406,52.183-52.182V55.183C417.91,26.409,394.5,3.003,365.727,3.003z"/>
<g>
	<g>
		<path fill="none" d="M364.511,869.326H62.043c-32.206,0-58.408-26.203-58.408-58.414v-752.5C3.635,26.203,29.837,0,62.043,0
			h302.468c32.21,0,58.415,26.203,58.415,58.412v752.5C422.926,843.123,396.721,869.326,364.511,869.326z M62.043,6.648
			c-28.539,0-51.759,23.221-51.759,51.764v752.5c0,28.545,23.22,51.766,51.759,51.766h302.468c28.543,0,51.765-23.221,51.765-51.766
			v-752.5c0-28.543-23.222-51.764-51.765-51.764H62.043z"/>
	</g>
	<g>
		<path fill="none" d="M240.85,55.306h-59.801c-2.334,0-4.232-1.873-4.232-4.177c0-2.302,1.898-4.175,4.232-4.175h59.801
			c2.332,0,4.229,1.873,4.229,4.175C245.078,53.433,243.182,55.306,240.85,55.306z M181.049,48.617
			c-1.417,0-2.569,1.127-2.569,2.512c0,1.387,1.152,2.515,2.569,2.515h59.801c1.415,0,2.566-1.128,2.566-2.515
			c0-1.385-1.151-2.512-2.566-2.512H181.049z"/>
	</g>
	<g>
		<path fill="none" d="M210.947,27.63c-2.605,0-4.727-2.12-4.727-4.726c0-2.604,2.121-4.725,4.727-4.725
			c2.607,0,4.729,2.12,4.729,4.725C215.676,25.51,213.555,27.63,210.947,27.63z M210.947,19.842c-1.689,0-3.063,1.375-3.063,3.062
			c0,1.689,1.374,3.062,3.063,3.062c1.691,0,3.066-1.373,3.066-3.062C214.014,21.217,212.639,19.842,210.947,19.842z"/>
	</g>
	<g>
		<path fill="none" d="M143.223,59.779c-4.466,0-8.098-3.633-8.098-8.098c0-4.466,3.632-8.098,8.098-8.098
			c4.468,0,8.104,3.632,8.104,8.098C151.326,56.146,147.69,59.779,143.223,59.779z M143.223,45.246
			c-3.549,0-6.436,2.887-6.436,6.436s2.887,6.436,6.436,6.436c3.551,0,6.441-2.887,6.441-6.436S146.773,45.246,143.223,45.246z"/>
	</g>
	<g>
		<path fill="none" d="M210.951,850.062c-19.748,0-35.813-16.062-35.813-35.807c0-19.746,16.065-35.811,35.813-35.811
			c19.744,0,35.807,16.064,35.807,35.811C246.758,834,230.695,850.062,210.951,850.062z M210.951,780.107
			c-18.831,0-34.151,15.318-34.151,34.148c0,18.828,15.32,34.145,34.151,34.145c18.827,0,34.145-15.316,34.145-34.145
			C245.096,795.426,229.778,780.107,210.951,780.107z"/>
	</g>
	<g>
		<path fill="none" d="M210.951,845.691c-17.336,0-31.441-14.102-31.441-31.436c0-17.336,14.105-31.438,31.441-31.438
			c17.333,0,31.436,14.102,31.436,31.438C242.387,831.59,228.284,845.691,210.951,845.691z M210.951,784.48
			c-16.42,0-29.779,13.357-29.779,29.775c0,16.416,13.359,29.773,29.779,29.773c16.416,0,29.772-13.357,29.772-29.773
			C240.724,797.838,227.367,784.48,210.951,784.48z"/>
	</g>
	<g>
		<path fill="none" d="M27.641,761.237V98.166h369.801v663.071H27.641z M399.657,763.468v-2.23V98.166v-2.232h-2.216H27.641h-2.216
			v2.232v663.071v2.23h2.216h369.801H399.657z"/>
	</g>
	<g>
		<path fill="none" d="M8.975,243.11c0,2.438-1.994,4.433-4.434,4.433H4.434c-2.438,0-4.434-1.995-4.434-4.433v-55.135
			c0-2.438,1.996-4.433,4.434-4.433h0.107c2.439,0,4.434,1.994,4.434,4.433V243.11z"/>
	</g>
	<g>
		<path fill="none" d="M425.62,243.11c0,2.438-1.993,4.433-4.433,4.433h-0.108c-2.439,0-4.433-1.995-4.433-4.433v-55.134
			c0-2.439,1.993-4.433,4.433-4.433h0.108c2.439,0,4.433,1.993,4.433,4.433V243.11z"/>
	</g>
	<g>
		<path fill="none" d="M8.975,321.795c0,2.436-1.994,4.432-4.434,4.432H4.434c-2.438,0-4.434-1.996-4.434-4.432V266.66
			c0-2.439,1.996-4.434,4.434-4.434h0.107c2.439,0,4.434,1.994,4.434,4.434V321.795z"/>
	</g>
	<g>
		<path fill="none" d="M7.992,143.924H0.983c-0.544,0-0.983-0.543-0.983-1.214v-35.251c0-0.671,0.439-1.214,0.983-1.214h7.009
			c0.543,0,0.984,0.543,0.984,1.214v35.251C8.977,143.381,8.535,143.924,7.992,143.924"/>
	</g>
</g>
</svg>
