<?xml version="1.0" encoding="utf-8"?>
<!-- Generator: Adobe Illustrator 16.0.0, SVG Export Plug-In . SVG Version: 6.00 Build 0)  -->
<!DOCTYPE svg PUBLIC "-//W3C//DTD SVG 1.1//EN" "http://www.w3.org/Graphics/SVG/1.1/DTD/svg11.dtd">
<svg version="1.1"
	 id="svg2" xmlns:cc="http://creativecommons.org/ns#" xmlns:rdf="http://www.w3.org/1999/02/22-rdf-syntax-ns#" xmlns:svg="http://www.w3.org/2000/svg" xmlns:dc="http://purl.org/dc/elements/1.1/"
	 xmlns="http://www.w3.org/2000/svg" xmlns:xlink="http://www.w3.org/1999/xlink" x="0px" y="0px" width="100px" height="100px"
	 viewBox="1006.827 192.611 100 100" enable-background="new 1006.827 192.611 100 100" xml:space="preserve">
<path id="path2985_2_" opacity="0.6" d="M1015.037,248.37l43.988,41.9c0.049,0.048,0.098,0.094,0.147,0.141
	c3.22,2.992,8.37,2.925,11.503-0.151c3.133-3.077,3.062-7.996-0.159-10.987l-38.249-36.426l38.124-36.64
	c0.048-0.045,0.096-0.09,0.142-0.136c3.128-3.082,3.047-8-0.18-10.987c-3.225-2.986-8.375-2.909-11.502,0.172l-43.838,42.139
	c-1.488,1.429-2.338,3.354-2.367,5.369C1012.617,244.864,1013.48,246.886,1015.037,248.37z"/>
</svg>
