<?xml version="1.0" encoding="utf-8"?>
<!-- Generator: Adobe Illustrator 16.0.0, SVG Export Plug-In . SVG Version: 6.00 Build 0)  -->
<!DOCTYPE svg PUBLIC "-//W3C//DTD SVG 1.1//EN" "http://www.w3.org/Graphics/SVG/1.1/DTD/svg11.dtd">
<svg version="1.1" id="Layer_1" xmlns="http://www.w3.org/2000/svg" xmlns:xlink="http://www.w3.org/1999/xlink" x="0px" y="0px"
	 width="464.286px" height="276.786px" viewBox="0 0 464.286 276.786" enable-background="new 0 0 464.286 276.786"
	 xml:space="preserve">
<g>
	<path fill="#FFFFFF" d="M198.171,119.286c0.145-2.348-0.943-5.054-2.394-5.945C195.839,115.639,196.578,117.508,198.171,119.286
		 M179.691,122.658c0.098,0.126,0.176,0.281,0.215,0.272c2.426-0.592,4.852-0.527,7.299-0.116c0.249,0.042,0.817-0.458,0.85-0.75
		c0.111-0.986,0.046-1.991,0.051-3.557C185.022,120.028,182.365,121.339,179.691,122.658 M132.458,153.279
		c-0.37-0.036-0.741-0.069-1.113-0.104c-0.155,0.84-0.396,1.676-0.449,2.52c-0.172,2.796-0.299,5.595-0.382,8.394
		c-0.016,0.539,0.209,1.102,0.396,1.625c0.288,0.811,0.77,1.689,1.739,1.217c0.648-0.314,1.333-1.113,1.47-1.801
		c0.212-1.068,0.087-2.244-0.093-3.344C133.56,158.941,132.987,156.114,132.458,153.279 M193.41,125.227
		c0.864,4.214,1.822,8.349,4.454,11.847c0.692,0.92,1.524,0.815,1.769-0.301c0.733-3.328,0.506-6.677,0.116-10.175
		C197.227,127.511,195.22,126.999,193.41,125.227 M160.744,158.187c0.266,0.034,0.531,0.069,0.796,0.104
		c1.179-2.93,2.368-5.854,3.518-8.793c0.091-0.234-0.034-0.604-0.158-0.86c-1.765-3.612-3.546-7.214-5.325-10.819
		c-0.188,0.036-0.375,0.075-0.562,0.112C157.144,144.884,159.145,151.52,160.744,158.187 M161.539,122.861
		c7.236-8.039,9.454-25.167,3.912-30.72C161.093,102.024,159.969,112.142,161.539,122.861 M134.016,172.15
		c-0.163-0.047-0.327-0.092-0.489-0.139c-0.379,0.383-0.752,0.771-1.135,1.148c-0.837,0.826-1.751,2.066-2.956,1.41
		c-0.944-0.514-1.838-1.715-2.092-2.768c-0.461-1.912-0.647-3.951-0.55-5.918c0.143-2.875,0.638-5.734,0.983-8.602
		c-0.371,0.271-0.594,0.592-0.747,0.943c-1.948,4.524-2.854,9.292-3.445,14.155c-0.797,6.549,1.058,12.611,3.352,18.582
		c0.272,0.711,1.172,1.672,1.751,1.65c0.691-0.025,1.681-0.852,1.958-1.559c0.798-2.039,1.537-4.158,1.874-6.311
		C133.172,180.57,133.533,176.35,134.016,172.15 M108.963,213.807c-0.125-0.152-0.251-0.307-0.376-0.459
		c-1.49,0.32-3.065,0.432-4.456,0.996c-7.778,3.172-13.468,8.695-17.423,16.025c-0.767,1.422-1.3,3.047-1.563,4.643
		c-0.355,2.166,0.944,3.4,3.015,2.711c1.892-0.633,3.825-1.605,5.305-2.918c5.262-4.664,9.181-10.463,13.032-16.279
		C107.471,217.053,108.148,215.385,108.963,213.807 M286.742,90.806c-2.551,6.591-5.37,13.041-10.819,17.849
		c-1.127,0.994-2.53,1.844-3.953,2.297c-4.272,1.358-6.829-0.071-8.357-4.345c-1.432-4.003-2.034-8.146-2.112-12.374
		c-0.051-2.769,0.022-5.538-0.051-8.306c-0.016-0.599-0.365-1.636-0.682-1.686c-0.588-0.09-1.363,0.271-1.888,0.671
		c-2.419,1.833-3.868,4.386-4.774,7.203c-1.133,3.526-2.031,7.128-3.11,10.672c-0.483,1.591-0.981,3.263-3.04,3.938
		c-0.269-0.736-0.501-1.384-0.827-2.29c-0.623,0.754-1.137,1.396-1.671,2.025c-0.564,0.663-1.097,1.366-1.731,1.956
		c-1.061,0.985-1.714,0.84-2.352-0.468c-0.223-0.458-0.372-0.952-0.537-1.437c-0.143-0.42-0.255-0.851-0.418-1.409
		c-0.954,1.831-1.652,3.617-2.74,5.124c-0.935,1.295-2.22,2.392-3.523,3.34c-1.013,0.734-2.194,0.461-3.032-0.546
		c-0.813-0.974-1.559-2.006-2.537-3.276c-0.433,0.808-0.831,1.428-1.114,2.096c-1.387,3.28-2.848,6.517-5.616,8.915
		c-1.993,1.728-3.017,1.643-4.972-0.455c-0.357,0.919-0.708,1.744-1.001,2.589c-0.916,2.619-2.35,4.9-4.369,6.807
		c-1.906,1.799-3.5,1.544-4.196-1.043c-0.9-3.347-1.357-6.813-1.969-10.234c-0.129-0.724-0.103-1.475-0.148-2.214
		c-0.176-0.007-0.352-0.015-0.526-0.023c-0.334,2.667-1.049,5.35-0.927,7.993c0.327,7.057-0.93,13.705-4.109,20
		c-0.927,1.837-1.723,1.987-3.327,0.613c-0.767-0.658-1.505-1.352-2.406-2.163c-0.604,1.934-1.137,3.702-1.707,5.458
		c-0.948,2.929-2.433,5.547-4.666,7.693c-3.688,3.544-7.854,3.243-12.177,1.428c-3.064-1.286-5.842-2.992-7.985-5.6
		c-0.121-0.146-0.316-0.229-0.675-0.48c-1.176,2.669-2.255,5.262-3.457,7.799c-0.835,1.759-1.719,3.523-2.795,5.14
		c-1.479,2.223-2.585,2.111-3.869-0.188c-0.092-0.164-0.211-0.316-0.438-0.648c-0.713,1.285-1.278,2.488-2.013,3.578
		c-0.912,1.355-1.795,2.801-2.99,3.877c-3.087,2.785-7.083,1.459-8.221-2.631c-0.438-1.576-0.816-3.178-1.088-4.789
		c-0.269-1.604-0.37-3.236-0.558-4.974c-0.207,0.134-0.501,0.216-0.566,0.385c-0.983,2.57-2.306,5.08-2.825,7.746
		c-1.227,6.297-1.817,12.723-3.162,18.988c-0.757,3.527-2.279,6.949-3.894,10.205c-0.785,1.58-2.416,2.9-3.946,3.914
		c-1.603,1.064-3.357,0.26-4.198-1.51c-0.376-0.789-0.717-1.6-1.008-2.424c-0.271-0.773-0.453-1.574-0.675-2.361
		c0.212,0.08,0.422,0.158,0.632,0.238c-1.678,4.414-3.357,8.83-5.146,13.543c2.592,0.129,5.279,0.434,7.957,0.371
		c7.935-0.191,15.496-2.143,22.879-4.982c7.694-2.963,14.851-6.916,21.451-11.789c8.419-6.213,15.32-14.002,22.066-21.943
		c7.164-8.438,14.465-16.775,23.327-23.523c6.006-4.574,12.674-8.057,19.525-11.164c8.729-3.958,17.806-6.887,27.219-8.719
		c7.34-1.426,28.47-4.106,39.909-4.691c0.586-0.03,1.032-0.064,1.474-0.363c0.838-0.572,1.104-2.323,1.425-2.33
		c0.818-0.018,1.334,2.574,1.97,2.592c1.491-1.891-0.192,3.128-1.389,4.199c-0.312,0.279-0.955,0.284-1.439,0.263
		c-12.089-0.524-41.31,3.457-52.892,7.044c-8.357,2.588-16.613,5.359-24.458,9.312c-11.409,5.75-20.721,13.767-28.274,24.112
		c-7.86,10.766-16.479,20.98-26.692,29.615c-7.711,6.521-16.195,12.033-25.818,15.426c-9.951,3.508-20.159,5.146-30.699,3.264
		c-1.049-0.184-1.395,0.367-1.783,1.039c-2.21,3.824-4.374,7.676-6.628,11.473c-2.526,4.258-5.377,8.287-9.521,11.137
		c-1.637,1.127-3.46,2.078-5.327,2.746c-2.457,0.879-4.859,0.496-6.891-1.324c-0.365-0.738-0.729-1.479-1.095-2.221
		c-0.728-9.412,3.67-16.502,10.452-22.332c4.085-3.514,8.775-6.096,14.199-7.031c0.95-0.166,1.931-0.215,2.899-0.211
		c1.779,0.008,2.806-0.887,3.503-2.465c2.475-5.615,3.871-11.488,4.446-17.578c0.866-9.145-1.737-17.314-6.656-24.941
		c-5.814-9.007-13.402-16.209-21.895-22.641c-6.244-4.728-12.359-9.658-18.199-14.875c-5.353-4.784-8.459-11.115-10.856-17.851
		c-2.755-7.743-4.474-15.651-4.783-23.867c-0.379-10.091,1.309-19.844,4.612-29.366c1.696-4.889,3.923-9.501,6.643-13.887
		c0.588-0.946,1.287-1.826,1.936-2.737c0.369-0.182,0.739-0.364,1.108-0.546c1.167,1.678,2.467,3.28,3.474,5.049
		c2.519,4.424,5.317,8.753,7.255,13.43c3.78,9.124,6.803,18.525,6.021,28.638c-0.633,8.194-3.278,15.773-7.52,22.789
		c-1.353,2.238-2.811,4.419-4.37,6.517c-0.422,0.568-1.389,0.731-2.105,1.08c0.232-0.754,0.279-1.649,0.727-2.24
		c4.413-5.841,7.092-12.362,7.88-19.644c1.11-10.259-0.332-20.131-4.369-29.648c-2.195-5.177-4.485-10.288-7.744-14.903
		c-0.589-0.835-1.258-1.615-1.909-2.444c-0.191,0.135-0.371,0.193-0.417,0.305c-4.34,10.523-7.948,21.212-7.62,32.824
		c0.293,10.312,2.195,20.227,7.467,29.237c4.605,7.873,10.625,14.544,17.701,20.298c7.276,5.915,14.888,11.435,21.167,18.518
		c3.893,4.392,7.755,8.787,10.419,14.046c1.546,3.055,2.746,6.285,4.091,9.406c0.041-0.082,0.227-0.314,0.273-0.572
		c1.2-6.57,4.101-12.349,8.079-17.657c1.104-1.474,1.908-3.175,3.021-4.644c0.571-0.751,1.685-1.826,2.256-1.67
		c0.896,0.245,1.923,1.289,2.214,2.209c0.656,2.08,0.943,4.285,1.29,6.452c0.286,1.783,0.441,3.589,0.976,5.361
		c1.245-3.635,2.484-7.271,3.738-10.903c0.604-1.751,1.159-3.525,1.903-5.215c0.23-0.517,1.018-0.789,1.55-1.173
		c0.161,0.588,0.495,1.189,0.452,1.762c-0.166,2.148-0.464,4.283-0.698,6.426c-0.513,4.728,0.606,9.17,2.395,13.488
		c1.098,2.648,2.301,2.873,4.206,0.758c0.685-0.76,1.291-1.6,1.865-2.451c0.844-1.244,1.074-2.561,0.69-4.093
		c-1.483-5.927-1.484-11.803,1.089-17.482c0.682-1.507,1.677-2.784,3.481-3.234c-0.452-1.721-0.968-3.44-1.348-5.19
		c-1.562-7.185-1.047-14.397-0.053-21.583c1.168-8.444,3.914-16.403,7.895-23.925c0.491-0.928,1.354-2.149,2.198-2.287
		c1.353-0.217,1.724,1.365,2.215,2.411c2.215,4.704,2.668,9.684,1.998,14.755c-1.034,7.808-3.482,15.144-7.995,21.666
		c-1.616,2.335-2.107,4.621-1.18,7.373c1.499,4.443,2.924,8.911,5.761,12.726c2.185,2.94,4.677,5.549,8.086,7.159
		c5.641,2.664,12.559,0.074,14.972-5.674c0.827-1.967,0.644-3.931-0.073-5.859c-0.735-1.979-1.506-3.948-2.358-5.877
		c-1.086-2.456-3.201-3.476-5.723-3.456c-6.458,0.049-12.017,1.976-15.572,7.865c-0.242,0.4-0.953,0.512-1.446,0.757
		c-0.194-0.509-0.646-1.086-0.533-1.513c0.314-1.183,0.793-2.337,1.333-3.442c2.831-5.785,6.43-11.022,11.749-14.777
		c2.498-1.763,5.267-3.247,8.1-4.395c2.07-0.838,2.818-2.229,3.463-4.112c0.877-2.558,1.706-5.228,3.147-7.469
		c2.107-3.277,3.244-3.212,5,0.328c1.926,3.876,2.792,8.023,3.475,12.24c0.095,0.575,0.304,1.131,0.541,1.987
		c1.464-2.153,2.039-4.242,2.123-6.46c0.096-2.513,0.066-5.03,0.134-7.544c0.081-2.938,0.812-5.706,2.49-8.147
		c0.359-0.521,1.035-0.826,1.567-1.229c0.166,0.604,0.456,1.2,0.48,1.809c0.247,6.45,0.36,12.907,0.715,19.351
		c0.137,2.49,0.777,4.954,1.244,7.419c0.119,0.636,0.452,1.231,1.117,1.959c0.342-0.679,0.702-1.351,1.022-2.042
		c2.295-4.944,2.42-10.257,2.562-15.55c0.056-2.099,0.526-3.934,1.984-5.486c1.096-1.168,1.875-1.077,2.202,0.489
		c0.301,1.44,0.259,2.953,0.375,4.431c0.165,2.094,0.333,4.188,0.514,6.279c0.035,0.406,0.03,0.862,0.219,1.198
		c0.332,0.591,0.797,1.107,1.207,1.654c0.508-0.382,1.164-0.669,1.491-1.169c0.725-1.11,1.372-2.292,1.893-3.512
		c0.636-1.491,0.426-2.909-0.321-4.423c-4.06-8.232-6.678-16.865-6.829-26.132c-0.009-0.496-0.076-0.992-0.148-1.901
		c-0.777,0.706-1.383,1.096-1.775,1.64c-1.653,2.285-3.187,4.659-4.889,6.904c-0.558,0.737-1.918,1.833-2.19,1.656
		c-1.172-0.765-0.41-1.985,0.019-2.888c2.064-4.337,4.754-8.264,7.96-11.85c0.522-0.583,0.895-1.446,1.006-2.227
		c0.439-3.037,0.47-6.163,1.196-9.121c0.483-1.973,1.862-3.737,2.905-5.557c0.156-0.273,0.67-0.34,1.019-0.502
		c0.146,0.36,0.449,0.737,0.41,1.077c-0.185,1.681-0.486,3.349-0.699,5.027c-0.236,1.853-0.422,3.712-0.366,5.721
		c6.815-4.934,13.469-9.837,21.901-12.418c-0.863,2.214-1.517,4.102-2.354,5.906c-0.237,0.519-0.963,0.86-1.527,1.176
		c-5.339,2.996-10.692,5.963-16.036,8.951c-1.666,0.931-2.232,2.4-2.182,4.263c0.251,9.223,2.636,17.849,7.284,25.808
		c1.021,1.75,2.397,3.317,3.754,4.838c1.493,1.671,2.449,1.46,3.485-0.488c1.974-3.721,2.358-7.722,2.167-11.833
		c-0.121-2.612-0.448-5.233-0.292-7.829c0.104-1.73,0.829-3.444,1.419-5.115c0.147-0.415,0.953-0.958,1.281-0.861
		c0.46,0.14,1.017,0.79,1.076,1.278c0.267,2.128,0.405,4.273,0.524,6.416c0.222,4.042,0.385,8.088,0.611,12.13
		c0.029,0.531,0.28,1.049,0.43,1.578c1.58-0.128,2.031-0.979,1.988-2.302c-0.093-2.97-0.242-5.943-0.169-8.91
		c0.032-1.302,0.361-2.687,0.929-3.85c0.314-0.643,1.405-0.905,2.146-1.339c0.335,0.663,0.893,1.303,0.958,1.989
		c0.13,1.366-0.046,2.76-0.022,4.14c0.009,0.58,0.202,1.159,0.693,1.809c0.549-1.082,1.173-2.13,1.631-3.245
		c1.731-4.23,4.277-7.793,8.069-10.44c2.361-1.647,4.223-1.039,4.67,1.813c0.275,1.756,0.272,3.579,0.192,5.362
		c-0.229,4.962,0.186,9.827,1.685,14.589c1.012,3.216,3.24,4.167,6.477,3.104c4.779-1.572,6.817-5.387,8.736-9.54
		c0.763-1.651,2.253-2.967,3.41-4.434C286.468,90.25,286.605,90.529,286.742,90.806"/>
	<path fill="#FFFFFF" d="M234.479,83.186c0-0.671-0.191-1.413,0.027-2c1.485-3.969,4.162-7.004,7.645-9.345
		c0.325-0.218,0.984-0.342,1.231-0.161c0.271,0.197,0.407,0.839,0.323,1.224c-0.496,2.249-1.448,4.217-3.386,5.657
		c-1.386,1.03-2.621,2.265-3.919,3.417c-0.484,0.429-0.95,0.878-1.425,1.318C234.809,83.259,234.645,83.222,234.479,83.186"/>
	<path fill="#FFFFFF" d="M301.745,123.332c0.119-0.612,0.229-1.245,0.327-1.897c0.919-2.033,1.581-3.88,1.986-5.541
		c0.404-1.661,0.58-3.107,0.521-4.344l-1.068-1.366c0.014-0.666,0.389-1.627,1.124-2.885c0.735-1.256,1.44-2.053,2.119-2.388
		c0.72-0.354,1.433-0.441,2.139-0.264c0.706,0.178,1.407,0.384,2.102,0.621c0.307,0.033,0.535,0.066,0.682,0.1
		c1.16,0.217,2.229,0.782,3.204,1.695c0.978,0.913,1.861,2.174,2.656,3.783c0.417,0.847,0.688,2.222,0.809,4.121
		c0.121,1.901,0.38,3.254,0.777,4.059c0.051,0.105,0.13,0.172,0.238,0.198c0.103,0.027,0.22,0.01,0.346-0.053
		c0.275-0.136,0.544-0.42,0.809-0.851c0.259-0.431,0.507-0.969,0.742-1.611c0.579-1.654,0.955-2.597,1.131-2.829
		c0.176-0.232,0.365-0.569,0.568-1.01c0.378,0.341,0.805,0.695,1.276,1.068c0.473,0.373,0.95,0.782,1.434,1.227
		c-0.106,0.264-0.223,0.572-0.353,0.924c-0.129,0.354-0.289,0.762-0.482,1.225c-0.458,0.885-1.078,1.987-1.861,3.308
		c-0.784,1.319-1.739,2.863-2.869,4.631c-0.286,0.484-0.664,0.947-1.131,1.388c-0.889,0.438-1.621,0.633-2.196,0.589
		c-0.576-0.045-1.009-0.365-1.301-0.957c-0.114-0.233-0.202-0.526-0.257-0.881c-0.055-0.353-0.087-0.752-0.097-1.195
		c-0.01-0.338-0.011-0.686-0.001-1.045c0.006-0.358-0.01-0.712-0.052-1.062c-0.192-1.564-0.446-2.976-0.767-4.239
		c-0.322-1.264-0.704-2.35-1.154-3.261c-0.554-1.122-1.15-1.894-1.792-2.312c-0.643-0.421-1.332-0.501-2.074-0.242
		c-0.34,0.484-0.671,1.094-0.99,1.831c-0.321,0.738-0.597,1.597-0.824,2.577c-0.237,1.064-0.479,1.96-0.727,2.688
		c-0.245,0.727,0.146-0.078-0.086,0.248c-0.034,0.411-0.798,2.253-1.023,2.865c-0.224,0.611-2.011,2.591-2.457,2.22
		C302.726,124.093,302.249,123.714,301.745,123.332"/>
	<path fill="#FFFFFF" d="M335.335,99.543c-0.096,0.073-0.196,0.26-0.298,0.561c-0.101,0.301-0.174,0.646-0.219,1.035
		c-0.057,0.633-0.134,1.331-0.233,2.09c-0.108,0.369-0.259,0.688-0.457,0.955c-0.196,0.267-0.448,0.517-0.756,0.749
		c-0.202,0.124-0.32,0.441-0.361,0.947c-0.04,0.505,0.007,1.188,0.139,2.045c0.092,0.77,0.199,1.415,0.322,1.933
		c0.124,0.517,0.264,0.936,0.421,1.252c0.292,0.592,0.659,0.964,1.102,1.115c0.442,0.149,0.971,0.074,1.585-0.229
		c0.975-0.48,1.734-1.191,2.283-2.133c0.552-0.941,0.918-2.129,1.106-3.564c0.14-0.569,0.268-1.106,0.388-1.612
		c0.106-0.212,0.142-0.486,0.106-0.823c-0.035-0.339-0.104-0.746-0.205-1.22l-0.322-2.093c-0.504-0.541-0.934-0.956-1.283-1.242
		c-0.352-0.287-0.634-0.431-0.844-0.432c-0.138-0.013-0.405,0.035-0.8,0.138C336.611,99.118,336.054,99.294,335.335,99.543
		 M322.927,112.887c0.074-0.222,0.13-0.492,0.169-0.816c0.04-0.321,0.091-0.683,0.157-1.082l1.614-2.888
		c0.119-0.507,0.348-1.192,0.685-2.055c0.338-0.863,0.763-1.923,1.276-3.176c-0.01-0.285,0.033-0.642,0.125-1.068
		c0.093-0.427,0.233-0.873,0.426-1.336c0.161-0.421,0.332-0.826,0.506-1.216c0.177-0.39,0.335-0.764,0.473-1.123
		c0.162-0.473,0.309-0.939,0.435-1.398c0.13-0.458,0.271-0.908,0.421-1.351c0.192-0.464,0.427-0.869,0.705-1.215
		c0.273-0.347,0.625-0.625,1.049-0.834c0.465-0.23,0.849-0.346,1.147-0.35c0.302-0.002,0.517,0.095,0.641,0.297
		c0.028,0.591,0.047,1.188,0.053,1.789l0.334,0.192c0.753-0.82,1.354-1.445,1.798-1.875c0.446-0.432,0.742-0.682,0.892-0.755
		c1.546-0.762,2.937-0.863,4.174-0.303c1.237,0.562,2.325,1.795,3.266,3.702c0.176,0.358,0.343,0.803,0.499,1.332
		c0.155,0.527,0.278,1.125,0.37,1.79c0.101,0.739,0.136,1.382,0.101,1.924c-0.034,0.544-0.111,0.964-0.229,1.258
		c0.221,0.235,0.411,0.383,0.576,0.447c0.163,0.064,0.328,0.054,0.498-0.029c0.169-0.084,0.318-0.222,0.444-0.417
		c0.129-0.193,0.269-0.459,0.418-0.796c0.44,0.361,0.885,0.741,1.33,1.14c0.447,0.398,0.897,0.788,1.349,1.171
		c-0.215,0.527-0.423,1.037-0.626,1.533c-0.203,0.494-0.434,0.99-0.689,1.484c-0.289,0.642-0.604,1.161-0.95,1.554
		c-0.345,0.394-0.729,0.695-1.153,0.905c-0.486,0.24-0.947,0.322-1.379,0.246c-0.433-0.077-0.849-0.279-1.247-0.608
		c-0.186,0.958-0.511,1.914-0.975,2.868c-0.463,0.952-1.057,1.843-1.779,2.673c-0.404,0.516-0.789,0.949-1.156,1.3
		c-0.365,0.352-0.728,0.616-1.089,0.793c-0.106,0.053-0.291,0.197-0.557,0.435c-0.265,0.235-0.492,0.4-0.684,0.493
		c-1.207,0.596-2.547,0.626-4.022,0.089c-1.474-0.535-2.521-1.427-3.137-2.677c-0.25-0.507-0.463-1.237-0.645-2.189
		c-0.18-0.949-0.306-1.5-0.379-1.648c-0.073-0.147-0.18-0.246-0.323-0.294c-0.142-0.049-0.297-0.032-0.466,0.052
		c-0.106,0.051-0.282,0.336-0.527,0.852c-0.245,0.516-0.594,1.253-1.042,2.211c-0.021,0.117-0.032,0.281-0.034,0.492
		c0,0.211-0.045,0.468-0.131,0.775c-0.41-0.404-0.843-0.801-1.301-1.195C323.879,113.594,323.408,113.228,322.927,112.887"/>
	<path fill="#FFFFFF" d="M345.885,101.565c0.053-0.106,0.086-0.213,0.096-0.324c0.013-0.112-0.016-0.23-0.076-0.355
		c0.213-0.475,0.419-1.084,0.619-1.829c0.2-0.742,0.413-1.604,0.639-2.583c0.152-0.865,0.321-1.738,0.506-2.617
		c0.185-0.882,0.405-1.781,0.664-2.697c0.152-0.866,0.286-1.755,0.402-2.666c0.116-0.913,0.268-1.823,0.45-2.729
		c0.647-0.82,1.165-1.43,1.546-1.829c0.383-0.398,0.659-0.64,0.828-0.724c0.317-0.157,0.61-0.176,0.88-0.059
		c0.269,0.118,0.497,0.367,0.684,0.748c0.063,0.127,0.121,0.323,0.17,0.587c0.055,0.264,0.104,0.555,0.154,0.872
		c0.062,0.497,0.106,1.014,0.134,1.553c0.197,0.824,0.361,1.665,0.494,2.519c0.132,0.855,0.271,1.696,0.414,2.521
		c0.235,1.014,0.484,1.931,0.743,2.75s0.547,1.547,0.861,2.182c0.584,1.186,1.075,2.035,1.474,2.549
		c0.397,0.514,0.686,0.688,0.868,0.519c0.149-0.23,0.338-0.514,0.567-0.851c0.227-0.338,0.495-0.726,0.804-1.167
		c0.184-0.59,0.367-1.3,0.552-2.128c0.184-0.827,0.416-1.811,0.694-2.949c0.09-0.781,0.194-1.557,0.314-2.326
		c0.066-0.242,0.141-0.53,0.227-0.86c0.089-0.333,0.158-0.658,0.213-0.973c-0.101-1.215-0.023-2.194,0.229-2.936
		c0.251-0.744,0.686-1.267,1.299-1.568c0.55-0.272,1.023-0.42,1.422-0.445c0.395-0.024,0.725,0.07,0.986,0.284
		c0.136,0.116,0.314,0.344,0.535,0.683c0.219,0.339,0.475,0.805,0.768,1.399c0.115,0.233,0.329,0.547,0.644,0.945
		c0.314,0.398,0.524,0.703,0.629,0.915c0.387,0.783,0.812,1.303,1.282,1.559c0.468,0.255,0.987,0.242,1.559-0.04
		c0.17-0.084,0.356-0.215,0.557-0.393c0.202-0.177,0.397-0.367,0.589-0.566l2.712,2.295c-0.896,1.389-1.652,2.479-2.273,3.273
		c-0.623,0.794-1.135,1.29-1.539,1.488c-1.057,0.521-2.06,0.675-3.011,0.458c-0.948-0.217-1.848-0.786-2.697-1.709
		c-0.167-0.232-0.383-0.442-0.646-0.63c-0.263-0.185-0.563-0.353-0.899-0.502c-0.087,0.306-0.179,0.667-0.275,1.083
		c-0.097,0.417-0.212,0.841-0.339,1.275c-0.229,0.979-0.463,1.943-0.706,2.892c-0.241,0.949-0.499,1.897-0.767,2.846
		c-0.313,1.235-0.749,2.232-1.309,2.994c-0.557,0.763-1.165,1.304-1.821,1.628c-0.975,0.479-1.901,0.577-2.78,0.286
		c-0.881-0.289-1.688-0.964-2.419-2.023c-0.733-1.009-1.284-1.803-1.65-2.386c-0.364-0.583-0.56-0.947-0.579-1.095
		c-0.347-0.593-0.634-1.03-0.863-1.311c-0.232-0.281-0.422-0.384-0.567-0.312l-0.145,0.188l-0.887,2.767
		c0.008,0.179-0.006,0.417-0.043,0.711c-0.039,0.296-0.106,0.666-0.204,1.108c-0.242-0.274-0.584-0.594-1.025-0.955
		C347.131,102.542,346.565,102.096,345.885,101.565"/>
	<path fill="#FFFFFF" d="M389.296,96.736c-0.126,0.063-0.271,0.502-0.435,1.319c-0.162,0.818-0.349,2.002-0.558,3.553
		c-0.102,0.917-0.194,1.845-0.284,2.786c-0.089,0.939-0.206,1.878-0.348,2.817c-0.055,0.315-0.026,0.985,0.083,2.01
		c0.109,1.025,0.224,1.655,0.338,1.886c0.198,0.402,0.456,0.644,0.772,0.726c0.317,0.08,0.707,0.006,1.174-0.225
		c1.631-0.803,2.865-2.511,3.709-5.125c0.845-2.613,0.862-4.734,0.059-6.365c-0.168-0.339-0.428-0.704-0.778-1.096
		c-0.352-0.393-0.768-0.813-1.251-1.258c-0.578-0.479-1.066-0.804-1.467-0.974C389.909,96.619,389.57,96.601,389.296,96.736
		 M372.304,88.536c0.064-0.242,0.128-0.569,0.188-0.981c0.06-0.41,0.149-0.896,0.271-1.455c0.16-0.369,0.323-0.838,0.491-1.407
		c0.164-0.568,0.323-1.26,0.478-2.071c-0.01-0.443,0.001-0.942,0.033-1.496c0.028-0.556,0.057-1.207,0.08-1.956
		c-0.155-0.634-0.18-1.432-0.073-2.392c0.104-0.96,0.345-2.099,0.723-3.416c0.528-1.865,1.066-3.842,1.616-5.929
		c0.178-1.298,0.534-2.369,1.078-3.217c0.544-0.846,1.26-1.488,2.148-1.927c0.595-0.293,1.174-0.25,1.741,0.128
		c0.568,0.377,1.108,1.084,1.619,2.123c0.188,0.38,0.222,1.101,0.099,2.162s-0.403,2.475-0.848,4.248
		c-0.27,1.106-0.572,2.224-0.912,3.351c-0.339,1.128-0.658,2.265-0.961,3.416c-0.171,0.453-0.346,0.94-0.521,1.461
		c-0.177,0.521-0.363,1.093-0.558,1.714c0.093,0.508,0.201,1.073,0.324,1.696c0.408,0.827,0.812,1.514,1.218,2.065
		c0.401,0.551,0.812,0.986,1.234,1.305c0.178,0.096,0.57,0.317,1.174,0.664c0.608,0.347,1.411,0.787,2.41,1.319
		c0.252,0.14,0.535,0.262,0.853,0.37c0.316,0.106,0.663,0.199,1.044,0.274c0.254-0.284,0.589-1.152,1.003-2.607
		c0.415-1.455,0.941-3.484,1.578-6.088l2.646,2.327c-0.064,0.241-0.175,0.724-0.332,1.446c-0.158,0.723-0.323,1.653-0.499,2.793
		c-0.236,1.223-0.457,2.515-0.654,3.876c0.105,0.211,0.325,0.404,0.663,0.582c0.335,0.175,0.736,0.359,1.2,0.552
		c0.863,0.364,1.741,0.958,2.634,1.779c0.893,0.824,1.805,1.914,2.737,3.27c0.029,0.116,0.088,0.299,0.172,0.547
		c0.083,0.25,0.186,0.526,0.311,0.833c0.946,2.56,0.65,5.733-0.891,9.52c-1.54,3.786-3.529,6.28-5.963,7.481
		c-1.122,0.553-2.087,0.851-2.894,0.894c-0.81,0.042-1.492-0.153-2.05-0.589c-0.24-0.223-0.592-0.721-1.053-1.495
		c-0.459-0.773-1.019-1.826-1.676-3.161c-0.063-0.125-0.129-0.403-0.193-0.833c-0.065-0.427-0.118-1.026-0.156-1.797
		c-0.061-0.496-0.071-1.038-0.031-1.623c0.04-0.585,0.078-1.217,0.112-1.892c0.079-0.59,0.166-1.174,0.264-1.748
		c0.099-0.575,0.181-1.143,0.247-1.701c0.312-1.075,0.593-2.028,0.839-2.862c0.205-0.601,0.328-1.136,0.374-1.605
		c0.046-0.47,0-0.841-0.136-1.118c-1.21-0.64-2.401-1.237-3.569-1.792c-1.231-0.576-2.32-1.225-3.269-1.941
		c-0.944-0.718-1.738-1.538-2.376-2.459c-0.085-0.118-0.268-0.278-0.551-0.48c-0.259,0.707-0.5,1.417-0.725,2.135
		c-0.242-0.276-0.584-0.596-1.025-0.956C373.55,89.514,372.986,89.068,372.304,88.536"/>
	<path fill="#FFFFFF" d="M394.842,64.591c-0.465,0.23-0.79,1.147-0.975,2.75c-0.183,1.603-0.133,2.69,0.148,3.262
		c0.063,0.128,0.134,0.204,0.213,0.23c0.08,0.028,0.204,0,0.373-0.084c0.232-0.116,0.363-0.332,0.392-0.647
		c0.027-0.317,0.054-0.613,0.077-0.887c0.127-0.326,0.243-0.667,0.345-1.019c0.104-0.354,0.202-0.699,0.299-1.036
		c0.108-0.422,0.151-0.812,0.133-1.171c-0.019-0.359-0.103-0.687-0.248-0.982c-0.094-0.191-0.207-0.327-0.338-0.407
		C395.129,64.522,394.99,64.518,394.842,64.591 M389.77,79.924c0.035-0.571,0.14-1.182,0.319-1.835
		c0.177-0.654,0.452-1.375,0.826-2.166c-0.144-0.455-0.288-0.904-0.428-1.349c-0.139-0.443-0.306-0.882-0.491-1.316
		c-0.082-0.327-0.154-0.725-0.215-1.197c-0.061-0.469-0.121-0.979-0.181-1.528c-0.04-0.56-0.068-1.271-0.085-2.13
		c-0.017-0.861,0.027-1.856,0.129-2.984c0.203-0.707,0.405-1.471,0.604-2.293c0.202-0.823,0.398-1.65,0.593-2.483
		c0.14-0.306,0.305-0.61,0.497-0.916c0.191-0.305,0.372-0.632,0.542-0.979c0.213-0.21,0.463-0.425,0.748-0.646
		c0.286-0.219,0.621-0.423,1.001-0.612c0.53-0.261,0.984-0.418,1.364-0.474c0.382-0.056,0.739-0.009,1.076,0.14
		c0.231,0.096,0.5,0.281,0.803,0.551c0.308,0.271,0.644,0.619,1.011,1.042c0.271,0.393,0.576,0.821,0.909,1.287
		c-0.061-0.126-0.072-0.055-0.033,0.214c0.042,0.27,0.112,0.695,0.218,1.275l0.216,1.158c0.203,1.162,0.114,2.666-0.265,4.511
		c-0.379,1.846-1.024,4.058-1.937,6.64c-0.076,0.222-0.109,0.469-0.107,0.744c0.004,0.275,0.069,0.54,0.193,0.792
		c0.222,0.446,0.491,0.797,0.816,1.058c0.327,0.259,0.68,0.402,1.061,0.424c0.231,0.044,0.564,0.039,0.999-0.018
		c0.431-0.056,0.929-0.155,1.489-0.3c0.794-0.47,1.478-0.979,2.05-1.525c0.573-0.545,1.051-1.097,1.435-1.655
		c0.076-0.115,0.2-0.289,0.376-0.521s0.333-0.499,0.471-0.805c0.579,0.479,1.094,0.909,1.545,1.292
		c0.453,0.382,0.829,0.723,1.135,1.019c-0.623,1.781-1.277,3.215-1.964,4.305c-0.687,1.087-1.442,1.837-2.269,2.243
		c-0.235,0.379-0.545,0.723-0.932,1.033c-0.388,0.308-0.877,0.609-1.47,0.902c-0.783,0.387-1.535,0.613-2.253,0.676
		c-0.719,0.064-1.388-0.025-2.008-0.272c-0.316-0.108-0.685-0.314-1.099-0.624c-0.415-0.308-0.88-0.691-1.396-1.147
		c-0.42-0.372-0.768-0.628-1.049-0.766c-0.278-0.139-0.523-0.156-0.735-0.052c-0.17,0.083-0.321,0.257-0.454,0.52
		c-0.134,0.263-0.25,0.616-0.347,1.059c-0.24-0.276-0.583-0.594-1.023-0.956C391.015,80.901,390.452,80.454,389.77,79.924"/>
</g>
</svg>
